ISO-10303-21;
HEADER;
/*Generated by software containing ST-Developer
 * from STEP Tools, Inc. (www.steptools.com) 
 */
/*OPTION: using custom renumber hook */
/*description */
/*implementation_level */
FILE_DESCRIPTION(('STEP AP242 Edition 2','STEP AP242 Edition 2''CAx-IF Rec.Pracs.---Representation and Presentation of Product Manufa
cturing Information (PMI)---4.0---2014-10-13','STEP AP242 Edition 2''CAx-IF Rec.Pracs.---Representation and Presentation of Product Manufa
cturing Information (PMI)---4.0---2014-10-13''CAx-IF Rec.Pracs.---3D Tessellated Geometry---0.4---2014-09-14','STEP AP242 Edition 2''CAx-IF Rec.Pracs.---Representation and Presentation of Product Manufa
cturing Information (PMI)---4.0---2014-10-13''CAx-IF Rec.Pracs.---3D Tessellated Geometry---0.4---2014-09-14''2;1','STEP AP242 Edition 2''CAx-IF Rec.Pracs.---Representation and Presentation of Product Manufa
cturing Information (PMI)---4.0---2014-10-13''CAx-IF Rec.Pracs.---3D Tessellated Geometry---0.4---2014-09-14''2;1''CAx-IF Rec.Pracs.---User Defined Attributes---1.5---2016-08-15'),'2;1');
/*name */
/*time_stamp */
/*author */
/*organization */
/*preprocessor_version */
/*originating_system */
/*authorisation */
FILE_NAME('/vol/tmp/translate-6149017051090791923/Back Case.step','2026-07-30T22:08:49',(''),(''),'ST-DEVELOPER v20','ONSHAPE BY PTC INC, 1.218','  ');
FILE_SCHEMA(('AP242_MANAGED_MODEL_BASED_3D_ENGINEERING_MIM_LF { 1 0 10303 442 3 1 4 }'));
ENDSEC;
DATA;
#10=SHAPE_REPRESENTATION_RELATIONSHIP('','',#1037,#11);
#11=ADVANCED_BREP_SHAPE_REPRESENTATION('',(#1035),#1655);
#12=CYLINDRICAL_SURFACE('',#1051,0.00170000000000002);
#13=CYLINDRICAL_SURFACE('',#1060,0.0017);
#14=CYLINDRICAL_SURFACE('',#1062,0.0017);
#15=CYLINDRICAL_SURFACE('',#1064,0.0017);
#16=CYLINDRICAL_SURFACE('',#1082,0.002);
#17=CYLINDRICAL_SURFACE('',#1083,0.002);
#18=CYLINDRICAL_SURFACE('',#1084,0.002);
#19=CYLINDRICAL_SURFACE('',#1085,0.002);
#20=CIRCLE('',#1047,0.002);
#21=CIRCLE('',#1048,0.002);
#22=CIRCLE('',#1049,0.002);
#23=CIRCLE('',#1050,0.002);
#24=CIRCLE('',#1052,0.00170000000000002);
#25=CIRCLE('',#1053,0.00170000000000002);
#26=CIRCLE('',#1055,0.0017);
#27=CIRCLE('',#1056,0.0017);
#28=CIRCLE('',#1057,0.0017);
#29=CIRCLE('',#1061,0.0017);
#30=CIRCLE('',#1063,0.0017);
#31=CIRCLE('',#1065,0.0017);
#32=CIRCLE('',#1078,0.002);
#33=CIRCLE('',#1079,0.002);
#34=CIRCLE('',#1080,0.002);
#35=CIRCLE('',#1081,0.002);
#36=ORIENTED_EDGE('',*,*,#316,.F.);
#37=ORIENTED_EDGE('',*,*,#317,.T.);
#38=ORIENTED_EDGE('',*,*,#318,.F.);
#39=ORIENTED_EDGE('',*,*,#319,.F.);
#40=ORIENTED_EDGE('',*,*,#320,.F.);
#41=ORIENTED_EDGE('',*,*,#321,.F.);
#42=ORIENTED_EDGE('',*,*,#322,.T.);
#43=ORIENTED_EDGE('',*,*,#323,.T.);
#44=ORIENTED_EDGE('',*,*,#324,.T.);
#45=ORIENTED_EDGE('',*,*,#325,.F.);
#46=ORIENTED_EDGE('',*,*,#326,.T.);
#47=ORIENTED_EDGE('',*,*,#327,.T.);
#48=ORIENTED_EDGE('',*,*,#328,.F.);
#49=ORIENTED_EDGE('',*,*,#329,.F.);
#50=ORIENTED_EDGE('',*,*,#330,.T.);
#51=ORIENTED_EDGE('',*,*,#321,.T.);
#52=ORIENTED_EDGE('',*,*,#331,.F.);
#53=ORIENTED_EDGE('',*,*,#332,.T.);
#54=ORIENTED_EDGE('',*,*,#333,.F.);
#55=ORIENTED_EDGE('',*,*,#334,.F.);
#56=ORIENTED_EDGE('',*,*,#335,.T.);
#57=ORIENTED_EDGE('',*,*,#336,.T.);
#58=ORIENTED_EDGE('',*,*,#337,.F.);
#59=ORIENTED_EDGE('',*,*,#338,.F.);
#60=ORIENTED_EDGE('',*,*,#339,.F.);
#61=ORIENTED_EDGE('',*,*,#340,.T.);
#62=ORIENTED_EDGE('',*,*,#341,.F.);
#63=ORIENTED_EDGE('',*,*,#333,.T.);
#64=ORIENTED_EDGE('',*,*,#342,.T.);
#65=ORIENTED_EDGE('',*,*,#343,.F.);
#66=ORIENTED_EDGE('',*,*,#318,.T.);
#67=ORIENTED_EDGE('',*,*,#344,.T.);
#68=ORIENTED_EDGE('',*,*,#345,.F.);
#69=ORIENTED_EDGE('',*,*,#346,.F.);
#70=ORIENTED_EDGE('',*,*,#347,.T.);
#71=ORIENTED_EDGE('',*,*,#348,.F.);
#72=ORIENTED_EDGE('',*,*,#349,.F.);
#73=ORIENTED_EDGE('',*,*,#350,.F.);
#74=ORIENTED_EDGE('',*,*,#351,.T.);
#75=ORIENTED_EDGE('',*,*,#352,.F.);
#76=ORIENTED_EDGE('',*,*,#353,.F.);
#77=ORIENTED_EDGE('',*,*,#354,.F.);
#78=ORIENTED_EDGE('',*,*,#355,.T.);
#79=ORIENTED_EDGE('',*,*,#356,.T.);
#80=ORIENTED_EDGE('',*,*,#357,.F.);
#81=ORIENTED_EDGE('',*,*,#358,.T.);
#82=ORIENTED_EDGE('',*,*,#359,.T.);
#83=ORIENTED_EDGE('',*,*,#360,.F.);
#84=ORIENTED_EDGE('',*,*,#361,.F.);
#85=ORIENTED_EDGE('',*,*,#362,.T.);
#86=ORIENTED_EDGE('',*,*,#363,.T.);
#87=ORIENTED_EDGE('',*,*,#364,.F.);
#88=ORIENTED_EDGE('',*,*,#365,.F.);
#89=ORIENTED_EDGE('',*,*,#366,.T.);
#90=ORIENTED_EDGE('',*,*,#367,.T.);
#91=ORIENTED_EDGE('',*,*,#368,.F.);
#92=ORIENTED_EDGE('',*,*,#369,.F.);
#93=ORIENTED_EDGE('',*,*,#370,.F.);
#94=ORIENTED_EDGE('',*,*,#364,.T.);
#95=ORIENTED_EDGE('',*,*,#371,.F.);
#96=ORIENTED_EDGE('',*,*,#372,.F.);
#97=ORIENTED_EDGE('',*,*,#360,.T.);
#98=ORIENTED_EDGE('',*,*,#373,.F.);
#99=ORIENTED_EDGE('',*,*,#374,.F.);
#100=ORIENTED_EDGE('',*,*,#356,.F.);
#101=ORIENTED_EDGE('',*,*,#375,.T.);
#102=ORIENTED_EDGE('',*,*,#376,.T.);
#103=ORIENTED_EDGE('',*,*,#367,.F.);
#104=ORIENTED_EDGE('',*,*,#377,.F.);
#105=ORIENTED_EDGE('',*,*,#378,.T.);
#106=ORIENTED_EDGE('',*,*,#379,.T.);
#107=ORIENTED_EDGE('',*,*,#380,.T.);
#108=ORIENTED_EDGE('',*,*,#381,.T.);
#109=ORIENTED_EDGE('',*,*,#382,.T.);
#110=ORIENTED_EDGE('',*,*,#383,.F.);
#111=ORIENTED_EDGE('',*,*,#384,.T.);
#112=ORIENTED_EDGE('',*,*,#385,.T.);
#113=ORIENTED_EDGE('',*,*,#386,.F.);
#114=ORIENTED_EDGE('',*,*,#387,.F.);
#115=ORIENTED_EDGE('',*,*,#388,.T.);
#116=ORIENTED_EDGE('',*,*,#365,.T.);
#117=ORIENTED_EDGE('',*,*,#389,.F.);
#118=ORIENTED_EDGE('',*,*,#390,.F.);
#119=ORIENTED_EDGE('',*,*,#354,.T.);
#120=ORIENTED_EDGE('',*,*,#391,.T.);
#121=ORIENTED_EDGE('',*,*,#322,.F.);
#122=ORIENTED_EDGE('',*,*,#330,.F.);
#123=ORIENTED_EDGE('',*,*,#392,.T.);
#124=ORIENTED_EDGE('',*,*,#393,.T.);
#125=ORIENTED_EDGE('',*,*,#326,.F.);
#126=ORIENTED_EDGE('',*,*,#394,.F.);
#127=ORIENTED_EDGE('',*,*,#350,.T.);
#128=ORIENTED_EDGE('',*,*,#395,.T.);
#129=ORIENTED_EDGE('',*,*,#396,.T.);
#130=ORIENTED_EDGE('',*,*,#358,.F.);
#131=ORIENTED_EDGE('',*,*,#397,.T.);
#132=ORIENTED_EDGE('',*,*,#398,.T.);
#133=ORIENTED_EDGE('',*,*,#362,.F.);
#134=ORIENTED_EDGE('',*,*,#399,.T.);
#135=ORIENTED_EDGE('',*,*,#400,.F.);
#136=ORIENTED_EDGE('',*,*,#401,.F.);
#137=ORIENTED_EDGE('',*,*,#385,.F.);
#138=ORIENTED_EDGE('',*,*,#402,.T.);
#139=ORIENTED_EDGE('',*,*,#403,.T.);
#140=ORIENTED_EDGE('',*,*,#339,.T.);
#141=ORIENTED_EDGE('',*,*,#404,.F.);
#142=ORIENTED_EDGE('',*,*,#405,.T.);
#143=ORIENTED_EDGE('',*,*,#406,.F.);
#144=ORIENTED_EDGE('',*,*,#392,.F.);
#145=ORIENTED_EDGE('',*,*,#329,.T.);
#146=ORIENTED_EDGE('',*,*,#407,.F.);
#147=ORIENTED_EDGE('',*,*,#408,.T.);
#148=ORIENTED_EDGE('',*,*,#327,.F.);
#149=ORIENTED_EDGE('',*,*,#393,.F.);
#150=ORIENTED_EDGE('',*,*,#406,.T.);
#151=ORIENTED_EDGE('',*,*,#409,.T.);
#152=ORIENTED_EDGE('',*,*,#410,.T.);
#153=ORIENTED_EDGE('',*,*,#346,.T.);
#154=ORIENTED_EDGE('',*,*,#387,.T.);
#155=ORIENTED_EDGE('',*,*,#411,.F.);
#156=ORIENTED_EDGE('',*,*,#400,.T.);
#157=ORIENTED_EDGE('',*,*,#412,.F.);
#158=ORIENTED_EDGE('',*,*,#413,.F.);
#159=ORIENTED_EDGE('',*,*,#401,.T.);
#160=ORIENTED_EDGE('',*,*,#352,.T.);
#161=ORIENTED_EDGE('',*,*,#414,.T.);
#162=ORIENTED_EDGE('',*,*,#324,.F.);
#163=ORIENTED_EDGE('',*,*,#415,.F.);
#164=ORIENTED_EDGE('',*,*,#353,.T.);
#165=ORIENTED_EDGE('',*,*,#415,.T.);
#166=ORIENTED_EDGE('',*,*,#323,.F.);
#167=ORIENTED_EDGE('',*,*,#391,.F.);
#168=ORIENTED_EDGE('',*,*,#394,.T.);
#169=ORIENTED_EDGE('',*,*,#325,.T.);
#170=ORIENTED_EDGE('',*,*,#414,.F.);
#171=ORIENTED_EDGE('',*,*,#351,.F.);
#172=ORIENTED_EDGE('',*,*,#416,.T.);
#173=ORIENTED_EDGE('',*,*,#335,.F.);
#174=ORIENTED_EDGE('',*,*,#417,.F.);
#175=ORIENTED_EDGE('',*,*,#418,.T.);
#176=ORIENTED_EDGE('',*,*,#419,.F.);
#177=ORIENTED_EDGE('',*,*,#420,.F.);
#178=ORIENTED_EDGE('',*,*,#417,.T.);
#179=ORIENTED_EDGE('',*,*,#338,.T.);
#180=ORIENTED_EDGE('',*,*,#421,.F.);
#181=ORIENTED_EDGE('',*,*,#422,.F.);
#182=ORIENTED_EDGE('',*,*,#419,.T.);
#183=ORIENTED_EDGE('',*,*,#337,.T.);
#184=ORIENTED_EDGE('',*,*,#421,.T.);
#185=ORIENTED_EDGE('',*,*,#336,.F.);
#186=ORIENTED_EDGE('',*,*,#416,.F.);
#187=ORIENTED_EDGE('',*,*,#423,.T.);
#188=ORIENTED_EDGE('',*,*,#379,.F.);
#189=ORIENTED_EDGE('',*,*,#424,.T.);
#190=ORIENTED_EDGE('',*,*,#425,.T.);
#191=ORIENTED_EDGE('',*,*,#426,.T.);
#192=ORIENTED_EDGE('',*,*,#427,.F.);
#193=ORIENTED_EDGE('',*,*,#428,.T.);
#194=ORIENTED_EDGE('',*,*,#377,.T.);
#195=ORIENTED_EDGE('',*,*,#429,.T.);
#196=ORIENTED_EDGE('',*,*,#430,.F.);
#197=ORIENTED_EDGE('',*,*,#431,.T.);
#198=ORIENTED_EDGE('',*,*,#383,.T.);
#199=ORIENTED_EDGE('',*,*,#432,.T.);
#200=ORIENTED_EDGE('',*,*,#433,.T.);
#201=ORIENTED_EDGE('',*,*,#434,.T.);
#202=ORIENTED_EDGE('',*,*,#381,.F.);
#203=ORIENTED_EDGE('',*,*,#435,.T.);
#204=ORIENTED_EDGE('',*,*,#418,.F.);
#205=ORIENTED_EDGE('',*,*,#420,.T.);
#206=ORIENTED_EDGE('',*,*,#422,.T.);
#207=ORIENTED_EDGE('',*,*,#423,.F.);
#208=ORIENTED_EDGE('',*,*,#425,.F.);
#209=ORIENTED_EDGE('',*,*,#436,.T.);
#210=ORIENTED_EDGE('',*,*,#427,.T.);
#211=ORIENTED_EDGE('',*,*,#437,.T.);
#212=ORIENTED_EDGE('',*,*,#430,.T.);
#213=ORIENTED_EDGE('',*,*,#438,.T.);
#214=ORIENTED_EDGE('',*,*,#433,.F.);
#215=ORIENTED_EDGE('',*,*,#439,.T.);
#216=ORIENTED_EDGE('',*,*,#436,.F.);
#217=ORIENTED_EDGE('',*,*,#424,.F.);
#218=ORIENTED_EDGE('',*,*,#378,.F.);
#219=ORIENTED_EDGE('',*,*,#428,.F.);
#220=ORIENTED_EDGE('',*,*,#437,.F.);
#221=ORIENTED_EDGE('',*,*,#429,.F.);
#222=ORIENTED_EDGE('',*,*,#384,.F.);
#223=ORIENTED_EDGE('',*,*,#431,.F.);
#224=ORIENTED_EDGE('',*,*,#438,.F.);
#225=ORIENTED_EDGE('',*,*,#432,.F.);
#226=ORIENTED_EDGE('',*,*,#382,.F.);
#227=ORIENTED_EDGE('',*,*,#434,.F.);
#228=ORIENTED_EDGE('',*,*,#439,.F.);
#229=ORIENTED_EDGE('',*,*,#435,.F.);
#230=ORIENTED_EDGE('',*,*,#380,.F.);
#231=ORIENTED_EDGE('',*,*,#426,.F.);
#232=ORIENTED_EDGE('',*,*,#375,.F.);
#233=ORIENTED_EDGE('',*,*,#355,.F.);
#234=ORIENTED_EDGE('',*,*,#390,.T.);
#235=ORIENTED_EDGE('',*,*,#440,.T.);
#236=ORIENTED_EDGE('',*,*,#376,.F.);
#237=ORIENTED_EDGE('',*,*,#440,.F.);
#238=ORIENTED_EDGE('',*,*,#389,.T.);
#239=ORIENTED_EDGE('',*,*,#368,.T.);
#240=ORIENTED_EDGE('',*,*,#370,.T.);
#241=ORIENTED_EDGE('',*,*,#441,.F.);
#242=ORIENTED_EDGE('',*,*,#399,.F.);
#243=ORIENTED_EDGE('',*,*,#361,.T.);
#244=ORIENTED_EDGE('',*,*,#369,.T.);
#245=ORIENTED_EDGE('',*,*,#366,.F.);
#246=ORIENTED_EDGE('',*,*,#388,.F.);
#247=ORIENTED_EDGE('',*,*,#441,.T.);
#248=ORIENTED_EDGE('',*,*,#372,.T.);
#249=ORIENTED_EDGE('',*,*,#442,.F.);
#250=ORIENTED_EDGE('',*,*,#397,.F.);
#251=ORIENTED_EDGE('',*,*,#357,.T.);
#252=ORIENTED_EDGE('',*,*,#371,.T.);
#253=ORIENTED_EDGE('',*,*,#363,.F.);
#254=ORIENTED_EDGE('',*,*,#398,.F.);
#255=ORIENTED_EDGE('',*,*,#442,.T.);
#256=ORIENTED_EDGE('',*,*,#374,.T.);
#257=ORIENTED_EDGE('',*,*,#443,.F.);
#258=ORIENTED_EDGE('',*,*,#395,.F.);
#259=ORIENTED_EDGE('',*,*,#349,.T.);
#260=ORIENTED_EDGE('',*,*,#373,.T.);
#261=ORIENTED_EDGE('',*,*,#359,.F.);
#262=ORIENTED_EDGE('',*,*,#396,.F.);
#263=ORIENTED_EDGE('',*,*,#443,.T.);
#264=ORIENTED_EDGE('',*,*,#343,.T.);
#265=ORIENTED_EDGE('',*,*,#444,.F.);
#266=ORIENTED_EDGE('',*,*,#445,.F.);
#267=ORIENTED_EDGE('',*,*,#319,.T.);
#268=ORIENTED_EDGE('',*,*,#342,.F.);
#269=ORIENTED_EDGE('',*,*,#332,.F.);
#270=ORIENTED_EDGE('',*,*,#446,.T.);
#271=ORIENTED_EDGE('',*,*,#444,.T.);
#272=ORIENTED_EDGE('',*,*,#386,.T.);
#273=ORIENTED_EDGE('',*,*,#320,.T.);
#274=ORIENTED_EDGE('',*,*,#445,.T.);
#275=ORIENTED_EDGE('',*,*,#446,.F.);
#276=ORIENTED_EDGE('',*,*,#331,.T.);
#277=ORIENTED_EDGE('',*,*,#340,.F.);
#278=ORIENTED_EDGE('',*,*,#403,.F.);
#279=ORIENTED_EDGE('',*,*,#447,.T.);
#280=ORIENTED_EDGE('',*,*,#448,.T.);
#281=ORIENTED_EDGE('',*,*,#341,.T.);
#282=ORIENTED_EDGE('',*,*,#448,.F.);
#283=ORIENTED_EDGE('',*,*,#449,.F.);
#284=ORIENTED_EDGE('',*,*,#334,.T.);
#285=ORIENTED_EDGE('',*,*,#447,.F.);
#286=ORIENTED_EDGE('',*,*,#402,.F.);
#287=ORIENTED_EDGE('',*,*,#328,.T.);
#288=ORIENTED_EDGE('',*,*,#449,.T.);
#289=ORIENTED_EDGE('',*,*,#411,.T.);
#290=ORIENTED_EDGE('',*,*,#348,.T.);
#291=ORIENTED_EDGE('',*,*,#450,.F.);
#292=ORIENTED_EDGE('',*,*,#451,.F.);
#293=ORIENTED_EDGE('',*,*,#404,.T.);
#294=ORIENTED_EDGE('',*,*,#347,.F.);
#295=ORIENTED_EDGE('',*,*,#410,.F.);
#296=ORIENTED_EDGE('',*,*,#452,.T.);
#297=ORIENTED_EDGE('',*,*,#450,.T.);
#298=ORIENTED_EDGE('',*,*,#412,.T.);
#299=ORIENTED_EDGE('',*,*,#405,.F.);
#300=ORIENTED_EDGE('',*,*,#451,.T.);
#301=ORIENTED_EDGE('',*,*,#452,.F.);
#302=ORIENTED_EDGE('',*,*,#409,.F.);
#303=ORIENTED_EDGE('',*,*,#344,.F.);
#304=ORIENTED_EDGE('',*,*,#317,.F.);
#305=ORIENTED_EDGE('',*,*,#453,.T.);
#306=ORIENTED_EDGE('',*,*,#454,.T.);
#307=ORIENTED_EDGE('',*,*,#345,.T.);
#308=ORIENTED_EDGE('',*,*,#454,.F.);
#309=ORIENTED_EDGE('',*,*,#455,.F.);
#310=ORIENTED_EDGE('',*,*,#407,.T.);
#311=ORIENTED_EDGE('',*,*,#453,.F.);
#312=ORIENTED_EDGE('',*,*,#316,.T.);
#313=ORIENTED_EDGE('',*,*,#408,.F.);
#314=ORIENTED_EDGE('',*,*,#455,.T.);
#315=ORIENTED_EDGE('',*,*,#413,.T.);
#316=EDGE_CURVE('',#456,#457,#552,.T.);
#317=EDGE_CURVE('',#456,#458,#553,.T.);
#318=EDGE_CURVE('',#459,#458,#554,.T.);
#319=EDGE_CURVE('',#460,#459,#555,.T.);
#320=EDGE_CURVE('',#461,#460,#556,.T.);
#321=EDGE_CURVE('',#462,#461,#557,.T.);
#322=EDGE_CURVE('',#462,#463,#558,.T.);
#323=EDGE_CURVE('',#463,#464,#559,.T.);
#324=EDGE_CURVE('',#464,#465,#560,.T.);
#325=EDGE_CURVE('',#466,#465,#561,.T.);
#326=EDGE_CURVE('',#466,#467,#562,.T.);
#327=EDGE_CURVE('',#467,#457,#563,.T.);
#328=EDGE_CURVE('',#468,#469,#564,.T.);
#329=EDGE_CURVE('',#470,#468,#565,.T.);
#330=EDGE_CURVE('',#470,#462,#566,.T.);
#331=EDGE_CURVE('',#471,#461,#567,.T.);
#332=EDGE_CURVE('',#471,#472,#568,.T.);
#333=EDGE_CURVE('',#473,#472,#569,.T.);
#334=EDGE_CURVE('',#469,#473,#570,.T.);
#335=EDGE_CURVE('',#474,#475,#571,.T.);
#336=EDGE_CURVE('',#475,#476,#572,.T.);
#337=EDGE_CURVE('',#477,#476,#573,.T.);
#338=EDGE_CURVE('',#474,#477,#574,.T.);
#339=EDGE_CURVE('',#478,#479,#575,.T.);
#340=EDGE_CURVE('',#478,#480,#576,.T.);
#341=EDGE_CURVE('',#473,#480,#577,.T.);
#342=EDGE_CURVE('',#472,#481,#578,.T.);
#343=EDGE_CURVE('',#459,#481,#579,.T.);
#344=EDGE_CURVE('',#458,#482,#580,.T.);
#345=EDGE_CURVE('',#483,#482,#581,.T.);
#346=EDGE_CURVE('',#484,#483,#582,.T.);
#347=EDGE_CURVE('',#484,#485,#583,.T.);
#348=EDGE_CURVE('',#479,#485,#584,.T.);
#349=EDGE_CURVE('',#486,#487,#585,.T.);
#350=EDGE_CURVE('',#488,#486,#586,.T.);
#351=EDGE_CURVE('',#488,#489,#587,.T.);
#352=EDGE_CURVE('',#490,#489,#588,.T.);
#353=EDGE_CURVE('',#491,#490,#589,.T.);
#354=EDGE_CURVE('',#492,#491,#590,.T.);
#355=EDGE_CURVE('',#492,#493,#591,.T.);
#356=EDGE_CURVE('',#493,#487,#592,.T.);
#357=EDGE_CURVE('',#494,#495,#593,.T.);
#358=EDGE_CURVE('',#494,#496,#594,.T.);
#359=EDGE_CURVE('',#496,#497,#595,.T.);
#360=EDGE_CURVE('',#495,#497,#596,.T.);
#361=EDGE_CURVE('',#498,#499,#597,.T.);
#362=EDGE_CURVE('',#498,#500,#598,.T.);
#363=EDGE_CURVE('',#500,#501,#599,.T.);
#364=EDGE_CURVE('',#499,#501,#600,.T.);
#365=EDGE_CURVE('',#502,#503,#601,.T.);
#366=EDGE_CURVE('',#502,#504,#602,.T.);
#367=EDGE_CURVE('',#504,#505,#603,.T.);
#368=EDGE_CURVE('',#503,#505,#604,.T.);
#369=EDGE_CURVE('',#506,#504,#605,.T.);
#370=EDGE_CURVE('',#499,#506,#606,.T.);
#371=EDGE_CURVE('',#507,#501,#607,.T.);
#372=EDGE_CURVE('',#495,#507,#608,.T.);
#373=EDGE_CURVE('',#508,#497,#609,.T.);
#374=EDGE_CURVE('',#487,#508,#610,.T.);
#375=EDGE_CURVE('',#493,#509,#611,.T.);
#376=EDGE_CURVE('',#509,#505,#612,.T.);
#377=EDGE_CURVE('',#510,#511,#613,.T.);
#378=EDGE_CURVE('',#510,#512,#20,.F.);
#379=EDGE_CURVE('',#512,#513,#614,.T.);
#380=EDGE_CURVE('',#513,#514,#21,.F.);
#381=EDGE_CURVE('',#514,#515,#615,.T.);
#382=EDGE_CURVE('',#515,#516,#22,.F.);
#383=EDGE_CURVE('',#517,#516,#616,.T.);
#384=EDGE_CURVE('',#517,#511,#23,.F.);
#385=EDGE_CURVE('',#518,#518,#24,.T.);
#386=EDGE_CURVE('',#519,#519,#25,.T.);
#387=EDGE_CURVE('',#520,#520,#26,.T.);
#388=EDGE_CURVE('',#521,#502,#617,.T.);
#389=EDGE_CURVE('',#522,#503,#618,.T.);
#390=EDGE_CURVE('',#492,#522,#619,.T.);
#391=EDGE_CURVE('',#491,#463,#620,.T.);
#392=EDGE_CURVE('',#470,#523,#621,.T.);
#393=EDGE_CURVE('',#523,#467,#622,.T.);
#394=EDGE_CURVE('',#488,#466,#623,.T.);
#395=EDGE_CURVE('',#486,#524,#624,.T.);
#396=EDGE_CURVE('',#524,#496,#625,.T.);
#397=EDGE_CURVE('',#494,#525,#626,.T.);
#398=EDGE_CURVE('',#525,#500,#627,.T.);
#399=EDGE_CURVE('',#498,#521,#628,.T.);
#400=EDGE_CURVE('',#526,#526,#27,.T.);
#401=EDGE_CURVE('',#527,#527,#28,.T.);
#402=EDGE_CURVE('',#468,#528,#629,.T.);
#403=EDGE_CURVE('',#528,#478,#630,.T.);
#404=EDGE_CURVE('',#529,#479,#631,.T.);
#405=EDGE_CURVE('',#529,#530,#632,.T.);
#406=EDGE_CURVE('',#523,#530,#633,.T.);
#407=EDGE_CURVE('',#531,#483,#634,.T.);
#408=EDGE_CURVE('',#531,#457,#635,.T.);
#409=EDGE_CURVE('',#530,#532,#636,.T.);
#410=EDGE_CURVE('',#532,#484,#637,.T.);
#411=EDGE_CURVE('',#533,#533,#29,.T.);
#412=EDGE_CURVE('',#534,#534,#30,.T.);
#413=EDGE_CURVE('',#535,#535,#31,.T.);
#414=EDGE_CURVE('',#489,#465,#638,.T.);
#415=EDGE_CURVE('',#490,#464,#639,.T.);
#416=EDGE_CURVE('',#536,#475,#640,.T.);
#417=EDGE_CURVE('',#537,#474,#641,.T.);
#418=EDGE_CURVE('',#537,#536,#642,.T.);
#419=EDGE_CURVE('',#538,#477,#643,.T.);
#420=EDGE_CURVE('',#537,#538,#644,.T.);
#421=EDGE_CURVE('',#539,#476,#645,.T.);
#422=EDGE_CURVE('',#538,#539,#646,.T.);
#423=EDGE_CURVE('',#536,#539,#647,.T.);
#424=EDGE_CURVE('',#512,#540,#648,.F.);
#425=EDGE_CURVE('',#540,#541,#649,.T.);
#426=EDGE_CURVE('',#541,#513,#650,.T.);
#427=EDGE_CURVE('',#542,#543,#651,.T.);
#428=EDGE_CURVE('',#542,#510,#652,.T.);
#429=EDGE_CURVE('',#511,#543,#653,.F.);
#430=EDGE_CURVE('',#544,#545,#654,.T.);
#431=EDGE_CURVE('',#544,#517,#655,.T.);
#432=EDGE_CURVE('',#516,#545,#656,.F.);
#433=EDGE_CURVE('',#546,#547,#657,.T.);
#434=EDGE_CURVE('',#547,#515,#658,.T.);
#435=EDGE_CURVE('',#514,#546,#659,.F.);
#436=EDGE_CURVE('',#540,#542,#32,.T.);
#437=EDGE_CURVE('',#543,#544,#33,.T.);
#438=EDGE_CURVE('',#545,#547,#34,.T.);
#439=EDGE_CURVE('',#546,#541,#35,.T.);
#440=EDGE_CURVE('',#522,#509,#660,.T.);
#441=EDGE_CURVE('',#521,#506,#661,.T.);
#442=EDGE_CURVE('',#525,#507,#662,.T.);
#443=EDGE_CURVE('',#524,#508,#663,.T.);
#444=EDGE_CURVE('',#548,#481,#664,.T.);
#445=EDGE_CURVE('',#460,#548,#665,.T.);
#446=EDGE_CURVE('',#471,#548,#666,.T.);
#447=EDGE_CURVE('',#528,#549,#667,.T.);
#448=EDGE_CURVE('',#549,#480,#668,.T.);
#449=EDGE_CURVE('',#469,#549,#669,.T.);
#450=EDGE_CURVE('',#550,#485,#670,.T.);
#451=EDGE_CURVE('',#529,#550,#671,.T.);
#452=EDGE_CURVE('',#532,#550,#672,.T.);
#453=EDGE_CURVE('',#456,#551,#673,.T.);
#454=EDGE_CURVE('',#551,#482,#674,.T.);
#455=EDGE_CURVE('',#531,#551,#675,.T.);
#456=VERTEX_POINT('',#1369);
#457=VERTEX_POINT('',#1370);
#458=VERTEX_POINT('',#1372);
#459=VERTEX_POINT('',#1374);
#460=VERTEX_POINT('',#1376);
#461=VERTEX_POINT('',#1378);
#462=VERTEX_POINT('',#1380);
#463=VERTEX_POINT('',#1382);
#464=VERTEX_POINT('',#1384);
#465=VERTEX_POINT('',#1386);
#466=VERTEX_POINT('',#1388);
#467=VERTEX_POINT('',#1390);
#468=VERTEX_POINT('',#1394);
#469=VERTEX_POINT('',#1395);
#470=VERTEX_POINT('',#1397);
#471=VERTEX_POINT('',#1400);
#472=VERTEX_POINT('',#1402);
#473=VERTEX_POINT('',#1404);
#474=VERTEX_POINT('',#1408);
#475=VERTEX_POINT('',#1409);
#476=VERTEX_POINT('',#1411);
#477=VERTEX_POINT('',#1413);
#478=VERTEX_POINT('',#1416);
#479=VERTEX_POINT('',#1417);
#480=VERTEX_POINT('',#1419);
#481=VERTEX_POINT('',#1422);
#482=VERTEX_POINT('',#1425);
#483=VERTEX_POINT('',#1427);
#484=VERTEX_POINT('',#1429);
#485=VERTEX_POINT('',#1431);
#486=VERTEX_POINT('',#1435);
#487=VERTEX_POINT('',#1436);
#488=VERTEX_POINT('',#1438);
#489=VERTEX_POINT('',#1440);
#490=VERTEX_POINT('',#1442);
#491=VERTEX_POINT('',#1444);
#492=VERTEX_POINT('',#1446);
#493=VERTEX_POINT('',#1448);
#494=VERTEX_POINT('',#1452);
#495=VERTEX_POINT('',#1453);
#496=VERTEX_POINT('',#1455);
#497=VERTEX_POINT('',#1457);
#498=VERTEX_POINT('',#1461);
#499=VERTEX_POINT('',#1462);
#500=VERTEX_POINT('',#1464);
#501=VERTEX_POINT('',#1466);
#502=VERTEX_POINT('',#1470);
#503=VERTEX_POINT('',#1471);
#504=VERTEX_POINT('',#1473);
#505=VERTEX_POINT('',#1475);
#506=VERTEX_POINT('',#1479);
#507=VERTEX_POINT('',#1482);
#508=VERTEX_POINT('',#1485);
#509=VERTEX_POINT('',#1488);
#510=VERTEX_POINT('',#1491);
#511=VERTEX_POINT('',#1492);
#512=VERTEX_POINT('',#1494);
#513=VERTEX_POINT('',#1496);
#514=VERTEX_POINT('',#1498);
#515=VERTEX_POINT('',#1500);
#516=VERTEX_POINT('',#1502);
#517=VERTEX_POINT('',#1504);
#518=VERTEX_POINT('',#1508);
#519=VERTEX_POINT('',#1510);
#520=VERTEX_POINT('',#1513);
#521=VERTEX_POINT('',#1515);
#522=VERTEX_POINT('',#1517);
#523=VERTEX_POINT('',#1521);
#524=VERTEX_POINT('',#1525);
#525=VERTEX_POINT('',#1528);
#526=VERTEX_POINT('',#1532);
#527=VERTEX_POINT('',#1534);
#528=VERTEX_POINT('',#1537);
#529=VERTEX_POINT('',#1540);
#530=VERTEX_POINT('',#1542);
#531=VERTEX_POINT('',#1546);
#532=VERTEX_POINT('',#1549);
#533=VERTEX_POINT('',#1553);
#534=VERTEX_POINT('',#1556);
#535=VERTEX_POINT('',#1559);
#536=VERTEX_POINT('',#1567);
#537=VERTEX_POINT('',#1569);
#538=VERTEX_POINT('',#1573);
#539=VERTEX_POINT('',#1577);
#540=VERTEX_POINT('',#1583);
#541=VERTEX_POINT('',#1585);
#542=VERTEX_POINT('',#1589);
#543=VERTEX_POINT('',#1590);
#544=VERTEX_POINT('',#1595);
#545=VERTEX_POINT('',#1596);
#546=VERTEX_POINT('',#1601);
#547=VERTEX_POINT('',#1602);
#548=VERTEX_POINT('',#1628);
#549=VERTEX_POINT('',#1635);
#550=VERTEX_POINT('',#1642);
#551=VERTEX_POINT('',#1649);
#552=LINE('',#1368,#676);
#553=LINE('',#1371,#677);
#554=LINE('',#1373,#678);
#555=LINE('',#1375,#679);
#556=LINE('',#1377,#680);
#557=LINE('',#1379,#681);
#558=LINE('',#1381,#682);
#559=LINE('',#1383,#683);
#560=LINE('',#1385,#684);
#561=LINE('',#1387,#685);
#562=LINE('',#1389,#686);
#563=LINE('',#1391,#687);
#564=LINE('',#1393,#688);
#565=LINE('',#1396,#689);
#566=LINE('',#1398,#690);
#567=LINE('',#1399,#691);
#568=LINE('',#1401,#692);
#569=LINE('',#1403,#693);
#570=LINE('',#1405,#694);
#571=LINE('',#1407,#695);
#572=LINE('',#1410,#696);
#573=LINE('',#1412,#697);
#574=LINE('',#1414,#698);
#575=LINE('',#1415,#699);
#576=LINE('',#1418,#700);
#577=LINE('',#1420,#701);
#578=LINE('',#1421,#702);
#579=LINE('',#1423,#703);
#580=LINE('',#1424,#704);
#581=LINE('',#1426,#705);
#582=LINE('',#1428,#706);
#583=LINE('',#1430,#707);
#584=LINE('',#1432,#708);
#585=LINE('',#1434,#709);
#586=LINE('',#1437,#710);
#587=LINE('',#1439,#711);
#588=LINE('',#1441,#712);
#589=LINE('',#1443,#713);
#590=LINE('',#1445,#714);
#591=LINE('',#1447,#715);
#592=LINE('',#1449,#716);
#593=LINE('',#1451,#717);
#594=LINE('',#1454,#718);
#595=LINE('',#1456,#719);
#596=LINE('',#1458,#720);
#597=LINE('',#1460,#721);
#598=LINE('',#1463,#722);
#599=LINE('',#1465,#723);
#600=LINE('',#1467,#724);
#601=LINE('',#1469,#725);
#602=LINE('',#1472,#726);
#603=LINE('',#1474,#727);
#604=LINE('',#1476,#728);
#605=LINE('',#1478,#729);
#606=LINE('',#1480,#730);
#607=LINE('',#1481,#731);
#608=LINE('',#1483,#732);
#609=LINE('',#1484,#733);
#610=LINE('',#1486,#734);
#611=LINE('',#1487,#735);
#612=LINE('',#1489,#736);
#613=LINE('',#1490,#737);
#614=LINE('',#1495,#738);
#615=LINE('',#1499,#739);
#616=LINE('',#1503,#740);
#617=LINE('',#1514,#741);
#618=LINE('',#1516,#742);
#619=LINE('',#1518,#743);
#620=LINE('',#1519,#744);
#621=LINE('',#1520,#745);
#622=LINE('',#1522,#746);
#623=LINE('',#1523,#747);
#624=LINE('',#1524,#748);
#625=LINE('',#1526,#749);
#626=LINE('',#1527,#750);
#627=LINE('',#1529,#751);
#628=LINE('',#1530,#752);
#629=LINE('',#1536,#753);
#630=LINE('',#1538,#754);
#631=LINE('',#1539,#755);
#632=LINE('',#1541,#756);
#633=LINE('',#1543,#757);
#634=LINE('',#1545,#758);
#635=LINE('',#1547,#759);
#636=LINE('',#1548,#760);
#637=LINE('',#1550,#761);
#638=LINE('',#1561,#762);
#639=LINE('',#1562,#763);
#640=LINE('',#1566,#764);
#641=LINE('',#1568,#765);
#642=LINE('',#1570,#766);
#643=LINE('',#1572,#767);
#644=LINE('',#1574,#768);
#645=LINE('',#1576,#769);
#646=LINE('',#1578,#770);
#647=LINE('',#1580,#771);
#648=LINE('',#1582,#772);
#649=LINE('',#1584,#773);
#650=LINE('',#1586,#774);
#651=LINE('',#1588,#775);
#652=LINE('',#1591,#776);
#653=LINE('',#1592,#777);
#654=LINE('',#1594,#778);
#655=LINE('',#1597,#779);
#656=LINE('',#1598,#780);
#657=LINE('',#1600,#781);
#658=LINE('',#1603,#782);
#659=LINE('',#1604,#783);
#660=LINE('',#1615,#784);
#661=LINE('',#1618,#785);
#662=LINE('',#1621,#786);
#663=LINE('',#1624,#787);
#664=LINE('',#1627,#788);
#665=LINE('',#1629,#789);
#666=LINE('',#1631,#790);
#667=LINE('',#1634,#791);
#668=LINE('',#1636,#792);
#669=LINE('',#1638,#793);
#670=LINE('',#1641,#794);
#671=LINE('',#1643,#795);
#672=LINE('',#1645,#796);
#673=LINE('',#1648,#797);
#674=LINE('',#1650,#798);
#675=LINE('',#1652,#799);
#676=VECTOR('',#1110,1.);
#677=VECTOR('',#1111,1.);
#678=VECTOR('',#1112,1.);
#679=VECTOR('',#1113,1.);
#680=VECTOR('',#1114,1.);
#681=VECTOR('',#1115,1.);
#682=VECTOR('',#1116,1.);
#683=VECTOR('',#1117,1.);
#684=VECTOR('',#1118,1.);
#685=VECTOR('',#1119,1.);
#686=VECTOR('',#1120,1.);
#687=VECTOR('',#1121,1.);
#688=VECTOR('',#1124,1.);
#689=VECTOR('',#1125,1.);
#690=VECTOR('',#1126,1.);
#691=VECTOR('',#1127,1.);
#692=VECTOR('',#1128,1.);
#693=VECTOR('',#1129,1.);
#694=VECTOR('',#1130,1.);
#695=VECTOR('',#1133,1.);
#696=VECTOR('',#1134,1.);
#697=VECTOR('',#1135,1.);
#698=VECTOR('',#1136,1.);
#699=VECTOR('',#1137,1.);
#700=VECTOR('',#1138,1.);
#701=VECTOR('',#1139,1.);
#702=VECTOR('',#1140,1.);
#703=VECTOR('',#1141,1.);
#704=VECTOR('',#1142,1.);
#705=VECTOR('',#1143,1.);
#706=VECTOR('',#1144,1.);
#707=VECTOR('',#1145,1.);
#708=VECTOR('',#1146,1.);
#709=VECTOR('',#1149,1.);
#710=VECTOR('',#1150,1.);
#711=VECTOR('',#1151,1.);
#712=VECTOR('',#1152,1.);
#713=VECTOR('',#1153,1.);
#714=VECTOR('',#1154,1.);
#715=VECTOR('',#1155,1.);
#716=VECTOR('',#1156,1.);
#717=VECTOR('',#1159,1.);
#718=VECTOR('',#1160,1.);
#719=VECTOR('',#1161,1.);
#720=VECTOR('',#1162,1.);
#721=VECTOR('',#1165,1.);
#722=VECTOR('',#1166,1.);
#723=VECTOR('',#1167,1.);
#724=VECTOR('',#1168,1.);
#725=VECTOR('',#1171,1.);
#726=VECTOR('',#1172,1.);
#727=VECTOR('',#1173,1.);
#728=VECTOR('',#1174,1.);
#729=VECTOR('',#1177,1.);
#730=VECTOR('',#1178,1.);
#731=VECTOR('',#1179,1.);
#732=VECTOR('',#1180,1.);
#733=VECTOR('',#1181,1.);
#734=VECTOR('',#1182,1.);
#735=VECTOR('',#1183,1.);
#736=VECTOR('',#1184,1.);
#737=VECTOR('',#1185,1.);
#738=VECTOR('',#1188,1.);
#739=VECTOR('',#1191,1.);
#740=VECTOR('',#1194,1.);
#741=VECTOR('',#1207,1.);
#742=VECTOR('',#1208,1.);
#743=VECTOR('',#1209,1.);
#744=VECTOR('',#1210,1.);
#745=VECTOR('',#1211,1.);
#746=VECTOR('',#1212,1.);
#747=VECTOR('',#1213,1.);
#748=VECTOR('',#1214,1.);
#749=VECTOR('',#1215,1.);
#750=VECTOR('',#1216,1.);
#751=VECTOR('',#1217,1.);
#752=VECTOR('',#1218,1.);
#753=VECTOR('',#1225,1.);
#754=VECTOR('',#1226,1.);
#755=VECTOR('',#1227,1.);
#756=VECTOR('',#1228,1.);
#757=VECTOR('',#1229,1.);
#758=VECTOR('',#1232,1.);
#759=VECTOR('',#1233,1.);
#760=VECTOR('',#1234,1.);
#761=VECTOR('',#1235,1.);
#762=VECTOR('',#1250,1.);
#763=VECTOR('',#1251,1.);
#764=VECTOR('',#1258,1.);
#765=VECTOR('',#1259,1.);
#766=VECTOR('',#1260,1.);
#767=VECTOR('',#1263,1.);
#768=VECTOR('',#1264,1.);
#769=VECTOR('',#1267,1.);
#770=VECTOR('',#1268,1.);
#771=VECTOR('',#1271,1.);
#772=VECTOR('',#1274,1.);
#773=VECTOR('',#1275,1.);
#774=VECTOR('',#1276,1.);
#775=VECTOR('',#1279,1.);
#776=VECTOR('',#1280,1.);
#777=VECTOR('',#1281,1.);
#778=VECTOR('',#1284,1.);
#779=VECTOR('',#1285,1.);
#780=VECTOR('',#1286,1.);
#781=VECTOR('',#1289,1.);
#782=VECTOR('',#1290,1.);
#783=VECTOR('',#1291,1.);
#784=VECTOR('',#1312,1.);
#785=VECTOR('',#1317,1.);
#786=VECTOR('',#1322,1.);
#787=VECTOR('',#1327,1.);
#788=VECTOR('',#1332,1.);
#789=VECTOR('',#1333,1.);
#790=VECTOR('',#1336,1.);
#791=VECTOR('',#1341,1.);
#792=VECTOR('',#1342,1.);
#793=VECTOR('',#1345,1.);
#794=VECTOR('',#1350,1.);
#795=VECTOR('',#1351,1.);
#796=VECTOR('',#1354,1.);
#797=VECTOR('',#1359,1.);
#798=VECTOR('',#1360,1.);
#799=VECTOR('',#1363,1.);
#800=EDGE_LOOP('',(#36,#37,#38,#39,#40,#41,#42,#43,#44,#45,#46,#47));
#801=EDGE_LOOP('',(#48,#49,#50,#51,#52,#53,#54,#55));
#802=EDGE_LOOP('',(#56,#57,#58,#59));
#803=EDGE_LOOP('',(#60,#61,#62,#63,#64,#65,#66,#67,#68,#69,#70,#71));
#804=EDGE_LOOP('',(#72,#73,#74,#75,#76,#77,#78,#79));
#805=EDGE_LOOP('',(#80,#81,#82,#83));
#806=EDGE_LOOP('',(#84,#85,#86,#87));
#807=EDGE_LOOP('',(#88,#89,#90,#91));
#808=EDGE_LOOP('',(#92,#93,#94,#95,#96,#97,#98,#99,#100,#101,#102,#103));
#809=EDGE_LOOP('',(#104,#105,#106,#107,#108,#109,#110,#111));
#810=EDGE_LOOP('',(#112));
#811=EDGE_LOOP('',(#113));
#812=EDGE_LOOP('',(#114));
#813=EDGE_LOOP('',(#115,#116,#117,#118,#119,#120,#121,#122,#123,#124,#125,#126,#127,#128,#129,#130,#131,#132,#133,#134));
#814=EDGE_LOOP('',(#135));
#815=EDGE_LOOP('',(#136));
#816=EDGE_LOOP('',(#137));
#817=EDGE_LOOP('',(#138,#139,#140,#141,#142,#143,#144,#145));
#818=EDGE_LOOP('',(#146,#147,#148,#149,#150,#151,#152,#153));
#819=EDGE_LOOP('',(#154));
#820=EDGE_LOOP('',(#155));
#821=EDGE_LOOP('',(#156));
#822=EDGE_LOOP('',(#157));
#823=EDGE_LOOP('',(#158));
#824=EDGE_LOOP('',(#159));
#825=EDGE_LOOP('',(#160,#161,#162,#163));
#826=EDGE_LOOP('',(#164,#165,#166,#167));
#827=EDGE_LOOP('',(#168,#169,#170,#171));
#828=EDGE_LOOP('',(#172,#173,#174,#175));
#829=EDGE_LOOP('',(#176,#177,#178,#179));
#830=EDGE_LOOP('',(#180,#181,#182,#183));
#831=EDGE_LOOP('',(#184,#185,#186,#187));
#832=EDGE_LOOP('',(#188,#189,#190,#191));
#833=EDGE_LOOP('',(#192,#193,#194,#195));
#834=EDGE_LOOP('',(#196,#197,#198,#199));
#835=EDGE_LOOP('',(#200,#201,#202,#203));
#836=EDGE_LOOP('',(#204,#205,#206,#207));
#837=EDGE_LOOP('',(#208,#209,#210,#211,#212,#213,#214,#215));
#838=EDGE_LOOP('',(#216,#217,#218,#219));
#839=EDGE_LOOP('',(#220,#221,#222,#223));
#840=EDGE_LOOP('',(#224,#225,#226,#227));
#841=EDGE_LOOP('',(#228,#229,#230,#231));
#842=EDGE_LOOP('',(#232,#233,#234,#235));
#843=EDGE_LOOP('',(#236,#237,#238,#239));
#844=EDGE_LOOP('',(#240,#241,#242,#243));
#845=EDGE_LOOP('',(#244,#245,#246,#247));
#846=EDGE_LOOP('',(#248,#249,#250,#251));
#847=EDGE_LOOP('',(#252,#253,#254,#255));
#848=EDGE_LOOP('',(#256,#257,#258,#259));
#849=EDGE_LOOP('',(#260,#261,#262,#263));
#850=EDGE_LOOP('',(#264,#265,#266,#267));
#851=EDGE_LOOP('',(#268,#269,#270,#271));
#852=EDGE_LOOP('',(#272));
#853=EDGE_LOOP('',(#273,#274,#275,#276));
#854=EDGE_LOOP('',(#277,#278,#279,#280));
#855=EDGE_LOOP('',(#281,#282,#283,#284));
#856=EDGE_LOOP('',(#285,#286,#287,#288));
#857=EDGE_LOOP('',(#289));
#858=EDGE_LOOP('',(#290,#291,#292,#293));
#859=EDGE_LOOP('',(#294,#295,#296,#297));
#860=EDGE_LOOP('',(#298));
#861=EDGE_LOOP('',(#299,#300,#301,#302));
#862=EDGE_LOOP('',(#303,#304,#305,#306));
#863=EDGE_LOOP('',(#307,#308,#309,#310));
#864=EDGE_LOOP('',(#311,#312,#313,#314));
#865=EDGE_LOOP('',(#315));
#866=FACE_BOUND('',#800,.T.);
#867=FACE_BOUND('',#801,.T.);
#868=FACE_BOUND('',#802,.T.);
#869=FACE_BOUND('',#803,.T.);
#870=FACE_BOUND('',#804,.T.);
#871=FACE_BOUND('',#805,.T.);
#872=FACE_BOUND('',#806,.T.);
#873=FACE_BOUND('',#807,.T.);
#874=FACE_BOUND('',#808,.T.);
#875=FACE_BOUND('',#809,.T.);
#876=FACE_BOUND('',#810,.T.);
#877=FACE_BOUND('',#811,.T.);
#878=FACE_BOUND('',#812,.T.);
#879=FACE_BOUND('',#813,.T.);
#880=FACE_BOUND('',#814,.T.);
#881=FACE_BOUND('',#815,.T.);
#882=FACE_BOUND('',#816,.T.);
#883=FACE_BOUND('',#817,.T.);
#884=FACE_BOUND('',#818,.T.);
#885=FACE_BOUND('',#819,.T.);
#886=FACE_BOUND('',#820,.T.);
#887=FACE_BOUND('',#821,.T.);
#888=FACE_BOUND('',#822,.T.);
#889=FACE_BOUND('',#823,.T.);
#890=FACE_BOUND('',#824,.T.);
#891=FACE_BOUND('',#825,.T.);
#892=FACE_BOUND('',#826,.T.);
#893=FACE_BOUND('',#827,.T.);
#894=FACE_BOUND('',#828,.T.);
#895=FACE_BOUND('',#829,.T.);
#896=FACE_BOUND('',#830,.T.);
#897=FACE_BOUND('',#831,.T.);
#898=FACE_BOUND('',#832,.T.);
#899=FACE_BOUND('',#833,.T.);
#900=FACE_BOUND('',#834,.T.);
#901=FACE_BOUND('',#835,.T.);
#902=FACE_BOUND('',#836,.T.);
#903=FACE_BOUND('',#837,.T.);
#904=FACE_BOUND('',#838,.T.);
#905=FACE_BOUND('',#839,.T.);
#906=FACE_BOUND('',#840,.T.);
#907=FACE_BOUND('',#841,.T.);
#908=FACE_BOUND('',#842,.T.);
#909=FACE_BOUND('',#843,.T.);
#910=FACE_BOUND('',#844,.T.);
#911=FACE_BOUND('',#845,.T.);
#912=FACE_BOUND('',#846,.T.);
#913=FACE_BOUND('',#847,.T.);
#914=FACE_BOUND('',#848,.T.);
#915=FACE_BOUND('',#849,.T.);
#916=FACE_BOUND('',#850,.T.);
#917=FACE_BOUND('',#851,.T.);
#918=FACE_BOUND('',#852,.T.);
#919=FACE_BOUND('',#853,.T.);
#920=FACE_BOUND('',#854,.T.);
#921=FACE_BOUND('',#855,.T.);
#922=FACE_BOUND('',#856,.T.);
#923=FACE_BOUND('',#857,.T.);
#924=FACE_BOUND('',#858,.T.);
#925=FACE_BOUND('',#859,.T.);
#926=FACE_BOUND('',#860,.T.);
#927=FACE_BOUND('',#861,.T.);
#928=FACE_BOUND('',#862,.T.);
#929=FACE_BOUND('',#863,.T.);
#930=FACE_BOUND('',#864,.T.);
#931=FACE_BOUND('',#865,.T.);
#932=PLANE('',#1039);
#933=PLANE('',#1040);
#934=PLANE('',#1041);
#935=PLANE('',#1042);
#936=PLANE('',#1043);
#937=PLANE('',#1044);
#938=PLANE('',#1045);
#939=PLANE('',#1046);
#940=PLANE('',#1054);
#941=PLANE('',#1058);
#942=PLANE('',#1059);
#943=PLANE('',#1066);
#944=PLANE('',#1067);
#945=PLANE('',#1068);
#946=PLANE('',#1069);
#947=PLANE('',#1070);
#948=PLANE('',#1071);
#949=PLANE('',#1072);
#950=PLANE('',#1073);
#951=PLANE('',#1074);
#952=PLANE('',#1075);
#953=PLANE('',#1076);
#954=PLANE('',#1077);
#955=PLANE('',#1086);
#956=PLANE('',#1087);
#957=PLANE('',#1088);
#958=PLANE('',#1089);
#959=PLANE('',#1090);
#960=PLANE('',#1091);
#961=PLANE('',#1092);
#962=PLANE('',#1093);
#963=PLANE('',#1094);
#964=PLANE('',#1095);
#965=PLANE('',#1096);
#966=PLANE('',#1097);
#967=PLANE('',#1098);
#968=PLANE('',#1099);
#969=PLANE('',#1100);
#970=PLANE('',#1101);
#971=PLANE('',#1102);
#972=PLANE('',#1103);
#973=PLANE('',#1104);
#974=PLANE('',#1105);
#975=ADVANCED_FACE('',(#866),#932,.T.);
#976=ADVANCED_FACE('',(#867),#933,.T.);
#977=ADVANCED_FACE('',(#868,#869),#934,.F.);
#978=ADVANCED_FACE('',(#870),#935,.F.);
#979=ADVANCED_FACE('',(#871),#936,.T.);
#980=ADVANCED_FACE('',(#872),#937,.T.);
#981=ADVANCED_FACE('',(#873),#938,.F.);
#982=ADVANCED_FACE('',(#874,#875),#939,.T.);
#983=ADVANCED_FACE('',(#876,#877),#12,.F.);
#984=ADVANCED_FACE('',(#878,#879,#880,#881,#882),#940,.T.);
#985=ADVANCED_FACE('',(#883),#941,.F.);
#986=ADVANCED_FACE('',(#884),#942,.F.);
#987=ADVANCED_FACE('',(#885,#886),#13,.F.);
#988=ADVANCED_FACE('',(#887,#888),#14,.F.);
#989=ADVANCED_FACE('',(#889,#890),#15,.F.);
#990=ADVANCED_FACE('',(#891),#943,.T.);
#991=ADVANCED_FACE('',(#892),#944,.T.);
#992=ADVANCED_FACE('',(#893),#945,.F.);
#993=ADVANCED_FACE('',(#894),#946,.T.);
#994=ADVANCED_FACE('',(#895),#947,.F.);
#995=ADVANCED_FACE('',(#896),#948,.F.);
#996=ADVANCED_FACE('',(#897),#949,.T.);
#997=ADVANCED_FACE('',(#898),#950,.T.);
#998=ADVANCED_FACE('',(#899),#951,.F.);
#999=ADVANCED_FACE('',(#900),#952,.F.);
#1000=ADVANCED_FACE('',(#901),#953,.T.);
#1001=ADVANCED_FACE('',(#902,#903),#954,.T.);
#1002=ADVANCED_FACE('',(#904),#16,.T.);
#1003=ADVANCED_FACE('',(#905),#17,.T.);
#1004=ADVANCED_FACE('',(#906),#18,.T.);
#1005=ADVANCED_FACE('',(#907),#19,.T.);
#1006=ADVANCED_FACE('',(#908),#955,.T.);
#1007=ADVANCED_FACE('',(#909),#956,.T.);
#1008=ADVANCED_FACE('',(#910),#957,.F.);
#1009=ADVANCED_FACE('',(#911),#958,.F.);
#1010=ADVANCED_FACE('',(#912),#959,.F.);
#1011=ADVANCED_FACE('',(#913),#960,.F.);
#1012=ADVANCED_FACE('',(#914),#961,.F.);
#1013=ADVANCED_FACE('',(#915),#962,.F.);
#1014=ADVANCED_FACE('',(#916),#963,.F.);
#1015=ADVANCED_FACE('',(#917),#964,.T.);
#1016=ADVANCED_FACE('',(#918,#919),#965,.T.);
#1017=ADVANCED_FACE('',(#920),#966,.T.);
#1018=ADVANCED_FACE('',(#921),#967,.F.);
#1019=ADVANCED_FACE('',(#922,#923),#968,.T.);
#1020=ADVANCED_FACE('',(#924),#969,.F.);
#1021=ADVANCED_FACE('',(#925),#970,.T.);
#1022=ADVANCED_FACE('',(#926,#927),#971,.T.);
#1023=ADVANCED_FACE('',(#928),#972,.T.);
#1024=ADVANCED_FACE('',(#929),#973,.F.);
#1025=ADVANCED_FACE('',(#930,#931),#974,.T.);
#1026=CLOSED_SHELL('',(#975,#976,#977,#978,#979,#980,#981,#982,#983,#984,#985,#986,#987,#988,#989,#990,#991,#992,#993,#994,#995,#996,#997,#998,#999,#1000,#1001,#1002,#1003,#1004,#1005,#1006,#1007,#1008,#1009,#1010,#1011,#1012,#1013,#1014,#1015,#1016,#1017,#1018,#1019,#1020,#1021,#1022,#1023,#1024,#1025));
#1027=STYLED_ITEM('',(#1028),#1035);
#1028=PRESENTATION_STYLE_ASSIGNMENT((#1029));
#1029=SURFACE_STYLE_USAGE(.BOTH.,#1030);
#1030=SURFACE_SIDE_STYLE('',(#1031));
#1031=SURFACE_STYLE_FILL_AREA(#1032);
#1032=FILL_AREA_STYLE('',(#1033));
#1033=FILL_AREA_STYLE_COLOUR('',#1034);
#1034=COLOUR_RGB('',0.615686274509804,0.811764705882353,0.929411764705882);
#1035=MANIFOLD_SOLID_BREP('Part 1',#1026);
#1036=SHAPE_DEFINITION_REPRESENTATION(#1660,#1037);
#1037=SHAPE_REPRESENTATION('Part 1',(#1038),#1655);
#1038=AXIS2_PLACEMENT_3D('',#1366,#1106,#1107);
#1039=AXIS2_PLACEMENT_3D('',#1367,#1108,#1109);
#1040=AXIS2_PLACEMENT_3D('',#1392,#1122,#1123);
#1041=AXIS2_PLACEMENT_3D('',#1406,#1131,#1132);
#1042=AXIS2_PLACEMENT_3D('',#1433,#1147,#1148);
#1043=AXIS2_PLACEMENT_3D('',#1450,#1157,#1158);
#1044=AXIS2_PLACEMENT_3D('',#1459,#1163,#1164);
#1045=AXIS2_PLACEMENT_3D('',#1468,#1169,#1170);
#1046=AXIS2_PLACEMENT_3D('',#1477,#1175,#1176);
#1047=AXIS2_PLACEMENT_3D('',#1493,#1186,#1187);
#1048=AXIS2_PLACEMENT_3D('',#1497,#1189,#1190);
#1049=AXIS2_PLACEMENT_3D('',#1501,#1192,#1193);
#1050=AXIS2_PLACEMENT_3D('',#1505,#1195,#1196);
#1051=AXIS2_PLACEMENT_3D('',#1506,#1197,#1198);
#1052=AXIS2_PLACEMENT_3D('',#1507,#1199,#1200);
#1053=AXIS2_PLACEMENT_3D('',#1509,#1201,#1202);
#1054=AXIS2_PLACEMENT_3D('',#1511,#1203,#1204);
#1055=AXIS2_PLACEMENT_3D('',#1512,#1205,#1206);
#1056=AXIS2_PLACEMENT_3D('',#1531,#1219,#1220);
#1057=AXIS2_PLACEMENT_3D('',#1533,#1221,#1222);
#1058=AXIS2_PLACEMENT_3D('',#1535,#1223,#1224);
#1059=AXIS2_PLACEMENT_3D('',#1544,#1230,#1231);
#1060=AXIS2_PLACEMENT_3D('',#1551,#1236,#1237);
#1061=AXIS2_PLACEMENT_3D('',#1552,#1238,#1239);
#1062=AXIS2_PLACEMENT_3D('',#1554,#1240,#1241);
#1063=AXIS2_PLACEMENT_3D('',#1555,#1242,#1243);
#1064=AXIS2_PLACEMENT_3D('',#1557,#1244,#1245);
#1065=AXIS2_PLACEMENT_3D('',#1558,#1246,#1247);
#1066=AXIS2_PLACEMENT_3D('',#1560,#1248,#1249);
#1067=AXIS2_PLACEMENT_3D('',#1563,#1252,#1253);
#1068=AXIS2_PLACEMENT_3D('',#1564,#1254,#1255);
#1069=AXIS2_PLACEMENT_3D('',#1565,#1256,#1257);
#1070=AXIS2_PLACEMENT_3D('',#1571,#1261,#1262);
#1071=AXIS2_PLACEMENT_3D('',#1575,#1265,#1266);
#1072=AXIS2_PLACEMENT_3D('',#1579,#1269,#1270);
#1073=AXIS2_PLACEMENT_3D('',#1581,#1272,#1273);
#1074=AXIS2_PLACEMENT_3D('',#1587,#1277,#1278);
#1075=AXIS2_PLACEMENT_3D('',#1593,#1282,#1283);
#1076=AXIS2_PLACEMENT_3D('',#1599,#1287,#1288);
#1077=AXIS2_PLACEMENT_3D('',#1605,#1292,#1293);
#1078=AXIS2_PLACEMENT_3D('',#1606,#1294,#1295);
#1079=AXIS2_PLACEMENT_3D('',#1607,#1296,#1297);
#1080=AXIS2_PLACEMENT_3D('',#1608,#1298,#1299);
#1081=AXIS2_PLACEMENT_3D('',#1609,#1300,#1301);
#1082=AXIS2_PLACEMENT_3D('',#1610,#1302,#1303);
#1083=AXIS2_PLACEMENT_3D('',#1611,#1304,#1305);
#1084=AXIS2_PLACEMENT_3D('',#1612,#1306,#1307);
#1085=AXIS2_PLACEMENT_3D('',#1613,#1308,#1309);
#1086=AXIS2_PLACEMENT_3D('',#1614,#1310,#1311);
#1087=AXIS2_PLACEMENT_3D('',#1616,#1313,#1314);
#1088=AXIS2_PLACEMENT_3D('',#1617,#1315,#1316);
#1089=AXIS2_PLACEMENT_3D('',#1619,#1318,#1319);
#1090=AXIS2_PLACEMENT_3D('',#1620,#1320,#1321);
#1091=AXIS2_PLACEMENT_3D('',#1622,#1323,#1324);
#1092=AXIS2_PLACEMENT_3D('',#1623,#1325,#1326);
#1093=AXIS2_PLACEMENT_3D('',#1625,#1328,#1329);
#1094=AXIS2_PLACEMENT_3D('',#1626,#1330,#1331);
#1095=AXIS2_PLACEMENT_3D('',#1630,#1334,#1335);
#1096=AXIS2_PLACEMENT_3D('',#1632,#1337,#1338);
#1097=AXIS2_PLACEMENT_3D('',#1633,#1339,#1340);
#1098=AXIS2_PLACEMENT_3D('',#1637,#1343,#1344);
#1099=AXIS2_PLACEMENT_3D('',#1639,#1346,#1347);
#1100=AXIS2_PLACEMENT_3D('',#1640,#1348,#1349);
#1101=AXIS2_PLACEMENT_3D('',#1644,#1352,#1353);
#1102=AXIS2_PLACEMENT_3D('',#1646,#1355,#1356);
#1103=AXIS2_PLACEMENT_3D('',#1647,#1357,#1358);
#1104=AXIS2_PLACEMENT_3D('',#1651,#1361,#1362);
#1105=AXIS2_PLACEMENT_3D('',#1653,#1364,#1365);
#1106=DIRECTION('',(0.,0.,1.));
#1107=DIRECTION('',(1.,0.,0.));
#1108=DIRECTION('',(1.,0.,0.));
#1109=DIRECTION('',(0.,0.,-1.));
#1110=DIRECTION('',(0.,-1.,0.));
#1111=DIRECTION('',(0.,0.,-1.));
#1112=DIRECTION('',(0.,-1.,0.));
#1113=DIRECTION('',(0.,0.,-1.));
#1114=DIRECTION('',(0.,-1.,0.));
#1115=DIRECTION('',(0.,0.,-1.));
#1116=DIRECTION('',(0.,-1.,0.));
#1117=DIRECTION('',(0.,0.,-1.));
#1118=DIRECTION('',(0.,-1.,0.));
#1119=DIRECTION('',(0.,0.,-1.));
#1120=DIRECTION('',(0.,-1.,0.));
#1121=DIRECTION('',(0.,0.,-1.));
#1122=DIRECTION('',(0.,1.,0.));
#1123=DIRECTION('',(0.,0.,1.));
#1124=DIRECTION('',(1.,0.,0.));
#1125=DIRECTION('',(0.,0.,-1.));
#1126=DIRECTION('',(1.,0.,0.));
#1127=DIRECTION('',(1.,0.,0.));
#1128=DIRECTION('',(0.,0.,-1.));
#1129=DIRECTION('',(1.,0.,0.));
#1130=DIRECTION('',(0.,0.,-1.));
#1131=DIRECTION('',(0.,0.,1.));
#1132=DIRECTION('',(1.,0.,0.));
#1133=DIRECTION('',(-1.,8.89601782552209E-17,0.));
#1134=DIRECTION('',(0.,-1.,0.));
#1135=DIRECTION('',(-1.,8.89601782552209E-17,0.));
#1136=DIRECTION('',(0.,-1.,0.));
#1137=DIRECTION('',(0.,-1.,0.));
#1138=DIRECTION('',(1.,0.,0.));
#1139=DIRECTION('',(0.,-1.,0.));
#1140=DIRECTION('',(0.,-1.,0.));
#1141=DIRECTION('',(-1.,0.,0.));
#1142=DIRECTION('',(-1.,0.,0.));
#1143=DIRECTION('',(0.,1.,0.));
#1144=DIRECTION('',(1.,0.,0.));
#1145=DIRECTION('',(0.,1.,0.));
#1146=DIRECTION('',(1.,0.,0.));
#1147=DIRECTION('',(1.,0.,0.));
#1148=DIRECTION('',(0.,0.,-1.));
#1149=DIRECTION('',(0.,0.,-1.));
#1150=DIRECTION('',(0.,-1.,0.));
#1151=DIRECTION('',(0.,0.,-1.));
#1152=DIRECTION('',(0.,-1.,0.));
#1153=DIRECTION('',(0.,0.,-1.));
#1154=DIRECTION('',(0.,-1.,0.));
#1155=DIRECTION('',(0.,0.,-1.));
#1156=DIRECTION('',(0.,-1.,0.));
#1157=DIRECTION('',(-1.79454152687256E-16,1.,0.));
#1158=DIRECTION('',(-1.,-1.79454152687256E-16,0.));
#1159=DIRECTION('',(0.,0.,-1.));
#1160=DIRECTION('',(1.,1.79454152687256E-16,0.));
#1161=DIRECTION('',(0.,0.,-1.));
#1162=DIRECTION('',(1.,1.79454152687256E-16,0.));
#1163=DIRECTION('',(1.,0.,0.));
#1164=DIRECTION('',(0.,0.,-1.));
#1165=DIRECTION('',(0.,0.,-1.));
#1166=DIRECTION('',(0.,-1.,0.));
#1167=DIRECTION('',(0.,0.,-1.));
#1168=DIRECTION('',(0.,-1.,0.));
#1169=DIRECTION('',(0.,1.,0.));
#1170=DIRECTION('',(0.,0.,1.));
#1171=DIRECTION('',(1.,0.,0.));
#1172=DIRECTION('',(0.,0.,-1.));
#1173=DIRECTION('',(1.,0.,0.));
#1174=DIRECTION('',(0.,0.,-1.));
#1175=DIRECTION('',(0.,0.,1.));
#1176=DIRECTION('',(1.,0.,0.));
#1177=DIRECTION('',(0.,1.,0.));
#1178=DIRECTION('',(1.,0.,0.));
#1179=DIRECTION('',(-1.,0.,0.));
#1180=DIRECTION('',(0.,1.,0.));
#1181=DIRECTION('',(0.,-1.,0.));
#1182=DIRECTION('',(-1.,0.,0.));
#1183=DIRECTION('',(-1.,0.,0.));
#1184=DIRECTION('',(0.,1.,0.));
#1185=DIRECTION('',(0.,-1.,0.));
#1186=DIRECTION('',(0.,0.,1.));
#1187=DIRECTION('',(1.,0.,0.));
#1188=DIRECTION('',(1.,-8.46206573647223E-17,0.));
#1189=DIRECTION('',(0.,0.,1.));
#1190=DIRECTION('',(1.,0.,0.));
#1191=DIRECTION('',(0.,-1.,0.));
#1192=DIRECTION('',(0.,0.,1.));
#1193=DIRECTION('',(1.,0.,0.));
#1194=DIRECTION('',(1.,-8.46206573647223E-17,0.));
#1195=DIRECTION('',(0.,0.,1.));
#1196=DIRECTION('',(1.,0.,0.));
#1197=DIRECTION('',(0.,0.,-1.));
#1198=DIRECTION('',(-1.,0.,0.));
#1199=DIRECTION('',(0.,0.,1.));
#1200=DIRECTION('',(1.,0.,0.));
#1201=DIRECTION('',(0.,0.,1.));
#1202=DIRECTION('',(1.,0.,0.));
#1203=DIRECTION('',(0.,0.,1.));
#1204=DIRECTION('',(1.,0.,0.));
#1205=DIRECTION('',(0.,0.,1.));
#1206=DIRECTION('',(1.,0.,0.));
#1207=DIRECTION('',(0.,1.,0.));
#1208=DIRECTION('',(0.,1.,0.));
#1209=DIRECTION('',(-1.,0.,0.));
#1210=DIRECTION('',(1.,0.,0.));
#1211=DIRECTION('',(0.,-1.,0.));
#1212=DIRECTION('',(1.,0.,0.));
#1213=DIRECTION('',(1.,0.,0.));
#1214=DIRECTION('',(-1.,0.,0.));
#1215=DIRECTION('',(0.,-1.,0.));
#1216=DIRECTION('',(0.,1.,0.));
#1217=DIRECTION('',(-1.,0.,0.));
#1218=DIRECTION('',(1.,0.,0.));
#1219=DIRECTION('',(0.,0.,1.));
#1220=DIRECTION('',(1.,0.,0.));
#1221=DIRECTION('',(0.,0.,1.));
#1222=DIRECTION('',(1.,0.,0.));
#1223=DIRECTION('',(1.,0.,0.));
#1224=DIRECTION('',(0.,0.,-1.));
#1225=DIRECTION('',(0.,-1.,0.));
#1226=DIRECTION('',(0.,0.,-1.));
#1227=DIRECTION('',(0.,0.,-1.));
#1228=DIRECTION('',(0.,-1.,0.));
#1229=DIRECTION('',(0.,0.,-1.));
#1230=DIRECTION('',(0.,1.,0.));
#1231=DIRECTION('',(0.,0.,1.));
#1232=DIRECTION('',(0.,0.,-1.));
#1233=DIRECTION('',(1.,0.,0.));
#1234=DIRECTION('',(1.,0.,0.));
#1235=DIRECTION('',(0.,0.,-1.));
#1236=DIRECTION('',(0.,0.,-1.));
#1237=DIRECTION('',(-1.,0.,0.));
#1238=DIRECTION('',(0.,0.,1.));
#1239=DIRECTION('',(1.,0.,0.));
#1240=DIRECTION('',(0.,0.,-1.));
#1241=DIRECTION('',(-1.,0.,0.));
#1242=DIRECTION('',(0.,0.,1.));
#1243=DIRECTION('',(1.,0.,0.));
#1244=DIRECTION('',(0.,0.,-1.));
#1245=DIRECTION('',(-1.,0.,0.));
#1246=DIRECTION('',(0.,0.,1.));
#1247=DIRECTION('',(1.,0.,0.));
#1248=DIRECTION('',(0.,0.,1.));
#1249=DIRECTION('',(1.,0.,0.));
#1250=DIRECTION('',(1.,0.,0.));
#1251=DIRECTION('',(1.,0.,0.));
#1252=DIRECTION('',(0.,-1.,0.));
#1253=DIRECTION('',(0.,0.,-1.));
#1254=DIRECTION('',(0.,-1.,0.));
#1255=DIRECTION('',(0.,0.,-1.));
#1256=DIRECTION('',(-8.89601782552209E-17,-1.,0.));
#1257=DIRECTION('',(1.,-8.89601782552209E-17,0.));
#1258=DIRECTION('',(0.,0.,-1.));
#1259=DIRECTION('',(0.,0.,-1.));
#1260=DIRECTION('',(-1.,8.89601782552209E-17,0.));
#1261=DIRECTION('',(1.,0.,0.));
#1262=DIRECTION('',(0.,0.,-1.));
#1263=DIRECTION('',(0.,0.,-1.));
#1264=DIRECTION('',(0.,-1.,0.));
#1265=DIRECTION('',(-8.89601782552209E-17,-1.,0.));
#1266=DIRECTION('',(1.,-8.89601782552209E-17,0.));
#1267=DIRECTION('',(0.,0.,-1.));
#1268=DIRECTION('',(-1.,8.89601782552209E-17,0.));
#1269=DIRECTION('',(1.,0.,0.));
#1270=DIRECTION('',(0.,0.,-1.));
#1271=DIRECTION('',(0.,-1.,0.));
#1272=DIRECTION('',(8.46206573647223E-17,1.,0.));
#1273=DIRECTION('',(-1.,8.46206573647223E-17,0.));
#1274=DIRECTION('',(0.,0.,-1.));
#1275=DIRECTION('',(1.,-8.46206573647223E-17,0.));
#1276=DIRECTION('',(0.,0.,-1.));
#1277=DIRECTION('',(1.,0.,0.));
#1278=DIRECTION('',(0.,0.,-1.));
#1279=DIRECTION('',(0.,-1.,0.));
#1280=DIRECTION('',(0.,0.,-1.));
#1281=DIRECTION('',(0.,0.,-1.));
#1282=DIRECTION('',(8.46206573647223E-17,1.,0.));
#1283=DIRECTION('',(-1.,8.46206573647223E-17,0.));
#1284=DIRECTION('',(1.,-8.46206573647223E-17,0.));
#1285=DIRECTION('',(0.,0.,-1.));
#1286=DIRECTION('',(0.,0.,-1.));
#1287=DIRECTION('',(1.,0.,0.));
#1288=DIRECTION('',(0.,0.,-1.));
#1289=DIRECTION('',(0.,-1.,0.));
#1290=DIRECTION('',(0.,0.,-1.));
#1291=DIRECTION('',(0.,0.,-1.));
#1292=DIRECTION('',(0.,0.,1.));
#1293=DIRECTION('',(1.,0.,0.));
#1294=DIRECTION('',(0.,0.,1.));
#1295=DIRECTION('',(1.,0.,0.));
#1296=DIRECTION('',(0.,0.,1.));
#1297=DIRECTION('',(1.,0.,0.));
#1298=DIRECTION('',(0.,0.,1.));
#1299=DIRECTION('',(1.,0.,0.));
#1300=DIRECTION('',(0.,0.,1.));
#1301=DIRECTION('',(1.,0.,0.));
#1302=DIRECTION('',(0.,0.,1.));
#1303=DIRECTION('',(1.,0.,0.));
#1304=DIRECTION('',(0.,0.,-1.));
#1305=DIRECTION('',(-1.,0.,0.));
#1306=DIRECTION('',(0.,0.,1.));
#1307=DIRECTION('',(1.,0.,0.));
#1308=DIRECTION('',(0.,0.,-1.));
#1309=DIRECTION('',(-1.,0.,0.));
#1310=DIRECTION('',(0.,-1.,0.));
#1311=DIRECTION('',(0.,0.,-1.));
#1312=DIRECTION('',(0.,0.,-1.));
#1313=DIRECTION('',(-1.,0.,0.));
#1314=DIRECTION('',(0.,0.,1.));
#1315=DIRECTION('',(0.,1.,0.));
#1316=DIRECTION('',(0.,0.,1.));
#1317=DIRECTION('',(0.,0.,-1.));
#1318=DIRECTION('',(-1.,0.,0.));
#1319=DIRECTION('',(0.,0.,1.));
#1320=DIRECTION('',(-1.,0.,0.));
#1321=DIRECTION('',(0.,0.,1.));
#1322=DIRECTION('',(0.,0.,-1.));
#1323=DIRECTION('',(0.,-1.,0.));
#1324=DIRECTION('',(0.,0.,-1.));
#1325=DIRECTION('',(0.,-1.,0.));
#1326=DIRECTION('',(0.,0.,-1.));
#1327=DIRECTION('',(0.,0.,-1.));
#1328=DIRECTION('',(1.,0.,0.));
#1329=DIRECTION('',(0.,0.,-1.));
#1330=DIRECTION('',(0.,-1.,0.));
#1331=DIRECTION('',(0.,0.,-1.));
#1332=DIRECTION('',(0.,0.,-1.));
#1333=DIRECTION('',(-1.,0.,0.));
#1334=DIRECTION('',(1.,0.,0.));
#1335=DIRECTION('',(0.,0.,-1.));
#1336=DIRECTION('',(0.,-1.,0.));
#1337=DIRECTION('',(0.,0.,-1.));
#1338=DIRECTION('',(1.,0.,0.));
#1339=DIRECTION('',(0.,1.,0.));
#1340=DIRECTION('',(0.,0.,1.));
#1341=DIRECTION('',(1.,0.,0.));
#1342=DIRECTION('',(0.,0.,-1.));
#1343=DIRECTION('',(1.,0.,0.));
#1344=DIRECTION('',(0.,0.,-1.));
#1345=DIRECTION('',(0.,-1.,0.));
#1346=DIRECTION('',(0.,0.,-1.));
#1347=DIRECTION('',(1.,0.,0.));
#1348=DIRECTION('',(0.,1.,0.));
#1349=DIRECTION('',(0.,0.,1.));
#1350=DIRECTION('',(0.,0.,-1.));
#1351=DIRECTION('',(1.,0.,0.));
#1352=DIRECTION('',(-1.,0.,0.));
#1353=DIRECTION('',(0.,0.,1.));
#1354=DIRECTION('',(0.,1.,0.));
#1355=DIRECTION('',(0.,0.,-1.));
#1356=DIRECTION('',(1.,0.,0.));
#1357=DIRECTION('',(0.,-1.,0.));
#1358=DIRECTION('',(0.,0.,-1.));
#1359=DIRECTION('',(-1.,0.,0.));
#1360=DIRECTION('',(0.,0.,-1.));
#1361=DIRECTION('',(-1.,0.,0.));
#1362=DIRECTION('',(0.,0.,1.));
#1363=DIRECTION('',(0.,1.,0.));
#1364=DIRECTION('',(0.,0.,-1.));
#1365=DIRECTION('',(1.,0.,0.));
#1366=CARTESIAN_POINT('',(0.,0.,0.));
#1367=CARTESIAN_POINT('',(0.065,0.,0.002));
#1368=CARTESIAN_POINT('',(0.065,0.,0.01));
#1369=CARTESIAN_POINT('',(0.065,-0.028,0.01));
#1370=CARTESIAN_POINT('',(0.065,-0.035,0.01));
#1371=CARTESIAN_POINT('',(0.065,-0.028,0.01));
#1372=CARTESIAN_POINT('',(0.065,-0.028,0.));
#1373=CARTESIAN_POINT('',(0.065,0.,0.));
#1374=CARTESIAN_POINT('',(0.065,0.028,0.));
#1375=CARTESIAN_POINT('',(0.065,0.028,0.01));
#1376=CARTESIAN_POINT('',(0.065,0.028,0.01));
#1377=CARTESIAN_POINT('',(0.065,0.,0.01));
#1378=CARTESIAN_POINT('',(0.065,0.035,0.01));
#1379=CARTESIAN_POINT('',(0.065,0.035,0.002));
#1380=CARTESIAN_POINT('',(0.065,0.035,0.02724));
#1381=CARTESIAN_POINT('',(0.065,0.,0.02724));
#1382=CARTESIAN_POINT('',(0.065,0.02307766,0.02724));
#1383=CARTESIAN_POINT('',(0.065,0.02307766,0.02039));
#1384=CARTESIAN_POINT('',(0.065,0.02307766,0.01354));
#1385=CARTESIAN_POINT('',(0.065,0.01605766,0.01354));
#1386=CARTESIAN_POINT('',(0.065,0.00903766,0.01354));
#1387=CARTESIAN_POINT('',(0.065,0.00903766,0.02039));
#1388=CARTESIAN_POINT('',(0.065,0.00903766,0.02724));
#1389=CARTESIAN_POINT('',(0.065,0.,0.02724));
#1390=CARTESIAN_POINT('',(0.065,-0.035,0.02724));
#1391=CARTESIAN_POINT('',(0.065,-0.035,0.002));
#1392=CARTESIAN_POINT('',(0.,0.035,0.002));
#1393=CARTESIAN_POINT('',(0.,0.035,0.01));
#1394=CARTESIAN_POINT('',(-0.065,0.035,0.01));
#1395=CARTESIAN_POINT('',(-0.058,0.035,0.01));
#1396=CARTESIAN_POINT('',(-0.065,0.035,0.002));
#1397=CARTESIAN_POINT('',(-0.065,0.035,0.02724));
#1398=CARTESIAN_POINT('',(0.,0.035,0.02724));
#1399=CARTESIAN_POINT('',(0.,0.035,0.01));
#1400=CARTESIAN_POINT('',(0.058,0.035,0.01));
#1401=CARTESIAN_POINT('',(0.058,0.035,0.01));
#1402=CARTESIAN_POINT('',(0.058,0.035,0.));
#1403=CARTESIAN_POINT('',(0.,0.035,0.));
#1404=CARTESIAN_POINT('',(-0.058,0.035,0.));
#1405=CARTESIAN_POINT('',(-0.058,0.035,0.01));
#1406=CARTESIAN_POINT('',(0.,0.,0.));
#1407=CARTESIAN_POINT('',(0.,-0.025,0.));
#1408=CARTESIAN_POINT('',(0.039,-0.025,0.));
#1409=CARTESIAN_POINT('',(-0.039,-0.025,0.));
#1410=CARTESIAN_POINT('',(-0.039,-0.026,0.));
#1411=CARTESIAN_POINT('',(-0.039,-0.027,0.));
#1412=CARTESIAN_POINT('',(0.,-0.027,0.));
#1413=CARTESIAN_POINT('',(0.039,-0.027,0.));
#1414=CARTESIAN_POINT('',(0.039,-0.026,0.));
#1415=CARTESIAN_POINT('',(-0.065,0.,0.));
#1416=CARTESIAN_POINT('',(-0.065,0.028,0.));
#1417=CARTESIAN_POINT('',(-0.065,-0.028,0.));
#1418=CARTESIAN_POINT('',(-0.0615,0.028,0.));
#1419=CARTESIAN_POINT('',(-0.058,0.028,0.));
#1420=CARTESIAN_POINT('',(-0.058,0.0315,0.));
#1421=CARTESIAN_POINT('',(0.058,0.0315,0.));
#1422=CARTESIAN_POINT('',(0.058,0.028,0.));
#1423=CARTESIAN_POINT('',(0.0615,0.028,0.));
#1424=CARTESIAN_POINT('',(0.0615,-0.028,0.));
#1425=CARTESIAN_POINT('',(0.058,-0.028,0.));
#1426=CARTESIAN_POINT('',(0.058,-0.0315,0.));
#1427=CARTESIAN_POINT('',(0.058,-0.035,0.));
#1428=CARTESIAN_POINT('',(0.,-0.035,0.));
#1429=CARTESIAN_POINT('',(-0.058,-0.035,0.));
#1430=CARTESIAN_POINT('',(-0.058,-0.0315,0.));
#1431=CARTESIAN_POINT('',(-0.058,-0.028,0.));
#1432=CARTESIAN_POINT('',(-0.0615,-0.028,0.));
#1433=CARTESIAN_POINT('',(0.063,-6.93889390390723E-18,0.02724));
#1434=CARTESIAN_POINT('',(0.063,-0.024,0.02724));
#1435=CARTESIAN_POINT('',(0.063,-0.024,0.02724));
#1436=CARTESIAN_POINT('',(0.063,-0.024,0.002));
#1437=CARTESIAN_POINT('',(0.063,-6.93889390390723E-18,0.02724));
#1438=CARTESIAN_POINT('',(0.063,0.00903766,0.02724));
#1439=CARTESIAN_POINT('',(0.063,0.00903766,0.02724));
#1440=CARTESIAN_POINT('',(0.063,0.00903766,0.01354));
#1441=CARTESIAN_POINT('',(0.063,-6.93889390390723E-18,0.01354));
#1442=CARTESIAN_POINT('',(0.063,0.02307766,0.01354));
#1443=CARTESIAN_POINT('',(0.063,0.02307766,0.02724));
#1444=CARTESIAN_POINT('',(0.063,0.02307766,0.02724));
#1445=CARTESIAN_POINT('',(0.063,-6.93889390390723E-18,0.02724));
#1446=CARTESIAN_POINT('',(0.063,0.024,0.02724));
#1447=CARTESIAN_POINT('',(0.063,0.024,0.02724));
#1448=CARTESIAN_POINT('',(0.063,0.024,0.002));
#1449=CARTESIAN_POINT('',(0.063,-6.93889390390723E-18,0.002));
#1450=CARTESIAN_POINT('',(6.93889390390723E-18,-0.033,0.02724));
#1451=CARTESIAN_POINT('',(-0.054,-0.033,0.02724));
#1452=CARTESIAN_POINT('',(-0.054,-0.033,0.02724));
#1453=CARTESIAN_POINT('',(-0.054,-0.033,0.002));
#1454=CARTESIAN_POINT('',(6.93889390390723E-18,-0.033,0.02724));
#1455=CARTESIAN_POINT('',(0.054,-0.033,0.02724));
#1456=CARTESIAN_POINT('',(0.054,-0.033,0.02724));
#1457=CARTESIAN_POINT('',(0.054,-0.033,0.002));
#1458=CARTESIAN_POINT('',(6.93889390390723E-18,-0.033,0.002));
#1459=CARTESIAN_POINT('',(-0.063,-3.46944695195361E-18,0.02724));
#1460=CARTESIAN_POINT('',(-0.063,0.024,0.02724));
#1461=CARTESIAN_POINT('',(-0.063,0.024,0.02724));
#1462=CARTESIAN_POINT('',(-0.063,0.024,0.002));
#1463=CARTESIAN_POINT('',(-0.063,-3.46944695195361E-18,0.02724));
#1464=CARTESIAN_POINT('',(-0.063,-0.024,0.02724));
#1465=CARTESIAN_POINT('',(-0.063,-0.024,0.02724));
#1466=CARTESIAN_POINT('',(-0.063,-0.024,0.002));
#1467=CARTESIAN_POINT('',(-0.063,-3.46944695195361E-18,0.002));
#1468=CARTESIAN_POINT('',(0.,0.033,0.02724));
#1469=CARTESIAN_POINT('',(0.,0.033,0.02724));
#1470=CARTESIAN_POINT('',(-0.054,0.033,0.02724));
#1471=CARTESIAN_POINT('',(0.054,0.033,0.02724));
#1472=CARTESIAN_POINT('',(-0.054,0.033,0.02724));
#1473=CARTESIAN_POINT('',(-0.054,0.033,0.002));
#1474=CARTESIAN_POINT('',(0.,0.033,0.002));
#1475=CARTESIAN_POINT('',(0.054,0.033,0.002));
#1476=CARTESIAN_POINT('',(0.054,0.033,0.02724));
#1477=CARTESIAN_POINT('',(0.,0.,0.002));
#1478=CARTESIAN_POINT('',(-0.054,0.0285,0.002));
#1479=CARTESIAN_POINT('',(-0.054,0.024,0.002));
#1480=CARTESIAN_POINT('',(-0.0585,0.024,0.002));
#1481=CARTESIAN_POINT('',(-0.0585,-0.024,0.002));
#1482=CARTESIAN_POINT('',(-0.054,-0.024,0.002));
#1483=CARTESIAN_POINT('',(-0.054,-0.0285,0.002));
#1484=CARTESIAN_POINT('',(0.054,-0.0285,0.002));
#1485=CARTESIAN_POINT('',(0.054,-0.024,0.002));
#1486=CARTESIAN_POINT('',(0.0585,-0.024,0.002));
#1487=CARTESIAN_POINT('',(0.0585,0.024,0.002));
#1488=CARTESIAN_POINT('',(0.054,0.024,0.002));
#1489=CARTESIAN_POINT('',(0.054,0.0285,0.002));
#1490=CARTESIAN_POINT('',(-0.041,-0.026,0.002));
#1491=CARTESIAN_POINT('',(-0.041,-0.025,0.002));
#1492=CARTESIAN_POINT('',(-0.041,-0.027,0.002));
#1493=CARTESIAN_POINT('',(-0.039,-0.025,0.002));
#1494=CARTESIAN_POINT('',(-0.039,-0.023,0.002));
#1495=CARTESIAN_POINT('',(6.93889390390723E-18,-0.023,0.002));
#1496=CARTESIAN_POINT('',(0.039,-0.023,0.002));
#1497=CARTESIAN_POINT('',(0.039,-0.025,0.002));
#1498=CARTESIAN_POINT('',(0.041,-0.025,0.002));
#1499=CARTESIAN_POINT('',(0.041,-0.026,0.002));
#1500=CARTESIAN_POINT('',(0.041,-0.027,0.002));
#1501=CARTESIAN_POINT('',(0.039,-0.027,0.002));
#1502=CARTESIAN_POINT('',(0.039,-0.029,0.002));
#1503=CARTESIAN_POINT('',(6.93889390390723E-18,-0.029,0.002));
#1504=CARTESIAN_POINT('',(-0.039,-0.029,0.002));
#1505=CARTESIAN_POINT('',(-0.039,-0.027,0.002));
#1506=CARTESIAN_POINT('',(0.0615,0.0315,0.02724));
#1507=CARTESIAN_POINT('',(0.0615,0.0315,0.02724));
#1508=CARTESIAN_POINT('',(0.0632,0.0315,0.02724));
#1509=CARTESIAN_POINT('',(0.0615,0.0315,0.01));
#1510=CARTESIAN_POINT('',(0.0632,0.0315,0.01));
#1511=CARTESIAN_POINT('',(0.,0.,0.02724));
#1512=CARTESIAN_POINT('',(-0.0615,0.0315,0.02724));
#1513=CARTESIAN_POINT('',(-0.0598,0.0315,0.02724));
#1514=CARTESIAN_POINT('',(-0.054,0.0285,0.02724));
#1515=CARTESIAN_POINT('',(-0.054,0.024,0.02724));
#1516=CARTESIAN_POINT('',(0.054,0.0285,0.02724));
#1517=CARTESIAN_POINT('',(0.054,0.024,0.02724));
#1518=CARTESIAN_POINT('',(0.0585,0.024,0.02724));
#1519=CARTESIAN_POINT('',(0.04,0.02307766,0.02724));
#1520=CARTESIAN_POINT('',(-0.065,0.,0.02724));
#1521=CARTESIAN_POINT('',(-0.065,-0.035,0.02724));
#1522=CARTESIAN_POINT('',(0.,-0.035,0.02724));
#1523=CARTESIAN_POINT('',(0.04,0.00903766,0.02724));
#1524=CARTESIAN_POINT('',(0.0585,-0.024,0.02724));
#1525=CARTESIAN_POINT('',(0.054,-0.024,0.02724));
#1526=CARTESIAN_POINT('',(0.054,-0.0285,0.02724));
#1527=CARTESIAN_POINT('',(-0.054,-0.0285,0.02724));
#1528=CARTESIAN_POINT('',(-0.054,-0.024,0.02724));
#1529=CARTESIAN_POINT('',(-0.0585,-0.024,0.02724));
#1530=CARTESIAN_POINT('',(-0.0585,0.024,0.02724));
#1531=CARTESIAN_POINT('',(-0.0615,-0.0315,0.02724));
#1532=CARTESIAN_POINT('',(-0.0598,-0.0315,0.02724));
#1533=CARTESIAN_POINT('',(0.0615,-0.0315,0.02724));
#1534=CARTESIAN_POINT('',(0.0632,-0.0315,0.02724));
#1535=CARTESIAN_POINT('',(-0.065,0.,0.002));
#1536=CARTESIAN_POINT('',(-0.065,0.,0.01));
#1537=CARTESIAN_POINT('',(-0.065,0.028,0.01));
#1538=CARTESIAN_POINT('',(-0.065,0.028,0.01));
#1539=CARTESIAN_POINT('',(-0.065,-0.028,0.01));
#1540=CARTESIAN_POINT('',(-0.065,-0.028,0.01));
#1541=CARTESIAN_POINT('',(-0.065,0.,0.01));
#1542=CARTESIAN_POINT('',(-0.065,-0.035,0.01));
#1543=CARTESIAN_POINT('',(-0.065,-0.035,0.002));
#1544=CARTESIAN_POINT('',(0.,-0.035,0.002));
#1545=CARTESIAN_POINT('',(0.058,-0.035,0.01));
#1546=CARTESIAN_POINT('',(0.058,-0.035,0.01));
#1547=CARTESIAN_POINT('',(0.,-0.035,0.01));
#1548=CARTESIAN_POINT('',(0.,-0.035,0.01));
#1549=CARTESIAN_POINT('',(-0.058,-0.035,0.01));
#1550=CARTESIAN_POINT('',(-0.058,-0.035,0.01));
#1551=CARTESIAN_POINT('',(-0.0615,0.0315,0.02724));
#1552=CARTESIAN_POINT('',(-0.0615,0.0315,0.01));
#1553=CARTESIAN_POINT('',(-0.0598,0.0315,0.01));
#1554=CARTESIAN_POINT('',(-0.0615,-0.0315,0.02724));
#1555=CARTESIAN_POINT('',(-0.0615,-0.0315,0.01));
#1556=CARTESIAN_POINT('',(-0.0598,-0.0315,0.01));
#1557=CARTESIAN_POINT('',(0.0615,-0.0315,0.02724));
#1558=CARTESIAN_POINT('',(0.0615,-0.0315,0.01));
#1559=CARTESIAN_POINT('',(0.0632,-0.0315,0.01));
#1560=CARTESIAN_POINT('',(0.04,0.01605766,0.01354));
#1561=CARTESIAN_POINT('',(0.04,0.00903766,0.01354));
#1562=CARTESIAN_POINT('',(0.04,0.02307766,0.01354));
#1563=CARTESIAN_POINT('',(0.04,0.02307766,0.02039));
#1564=CARTESIAN_POINT('',(0.04,0.00903766,0.02039));
#1565=CARTESIAN_POINT('',(0.,-0.025,0.099));
#1566=CARTESIAN_POINT('',(-0.039,-0.025,0.099));
#1567=CARTESIAN_POINT('',(-0.039,-0.025,0.02724));
#1568=CARTESIAN_POINT('',(0.039,-0.025,0.099));
#1569=CARTESIAN_POINT('',(0.039,-0.025,0.02724));
#1570=CARTESIAN_POINT('',(-2.22400445638052E-18,-0.025,0.02724));
#1571=CARTESIAN_POINT('',(0.039,-0.026,0.099));
#1572=CARTESIAN_POINT('',(0.039,-0.027,0.099));
#1573=CARTESIAN_POINT('',(0.039,-0.027,0.02724));
#1574=CARTESIAN_POINT('',(0.039,0.,0.02724));
#1575=CARTESIAN_POINT('',(0.,-0.027,0.099));
#1576=CARTESIAN_POINT('',(-0.039,-0.027,0.099));
#1577=CARTESIAN_POINT('',(-0.039,-0.027,0.02724));
#1578=CARTESIAN_POINT('',(-2.40192481289096E-18,-0.027,0.02724));
#1579=CARTESIAN_POINT('',(-0.039,-0.026,0.099));
#1580=CARTESIAN_POINT('',(-0.039,0.,0.02724));
#1581=CARTESIAN_POINT('',(6.93889390390723E-18,-0.023,0.02724));
#1582=CARTESIAN_POINT('',(-0.039,-0.023,0.02724));
#1583=CARTESIAN_POINT('',(-0.039,-0.023,0.02724));
#1584=CARTESIAN_POINT('',(6.93889390390723E-18,-0.023,0.02724));
#1585=CARTESIAN_POINT('',(0.039,-0.023,0.02724));
#1586=CARTESIAN_POINT('',(0.039,-0.023,0.02724));
#1587=CARTESIAN_POINT('',(-0.041,-0.026,0.02724));
#1588=CARTESIAN_POINT('',(-0.041,-0.026,0.02724));
#1589=CARTESIAN_POINT('',(-0.041,-0.025,0.02724));
#1590=CARTESIAN_POINT('',(-0.041,-0.027,0.02724));
#1591=CARTESIAN_POINT('',(-0.041,-0.025,0.002));
#1592=CARTESIAN_POINT('',(-0.041,-0.027,0.02724));
#1593=CARTESIAN_POINT('',(6.93889390390723E-18,-0.029,0.02724));
#1594=CARTESIAN_POINT('',(6.93889390390723E-18,-0.029,0.02724));
#1595=CARTESIAN_POINT('',(-0.039,-0.029,0.02724));
#1596=CARTESIAN_POINT('',(0.039,-0.029,0.02724));
#1597=CARTESIAN_POINT('',(-0.039,-0.029,0.02724));
#1598=CARTESIAN_POINT('',(0.039,-0.029,0.02724));
#1599=CARTESIAN_POINT('',(0.041,-0.026,0.02724));
#1600=CARTESIAN_POINT('',(0.041,-0.026,0.02724));
#1601=CARTESIAN_POINT('',(0.041,-0.025,0.02724));
#1602=CARTESIAN_POINT('',(0.041,-0.027,0.02724));
#1603=CARTESIAN_POINT('',(0.041,-0.027,0.002));
#1604=CARTESIAN_POINT('',(0.041,-0.025,0.02724));
#1605=CARTESIAN_POINT('',(0.,0.,0.02724));
#1606=CARTESIAN_POINT('',(-0.039,-0.025,0.02724));
#1607=CARTESIAN_POINT('',(-0.039,-0.027,0.02724));
#1608=CARTESIAN_POINT('',(0.039,-0.027,0.02724));
#1609=CARTESIAN_POINT('',(0.039,-0.025,0.02724));
#1610=CARTESIAN_POINT('',(-0.039,-0.025,0.02724));
#1611=CARTESIAN_POINT('',(-0.039,-0.027,0.02724));
#1612=CARTESIAN_POINT('',(0.039,-0.027,0.02724));
#1613=CARTESIAN_POINT('',(0.039,-0.025,0.02724));
#1614=CARTESIAN_POINT('',(0.0585,0.024,0.02724));
#1615=CARTESIAN_POINT('',(0.054,0.024,0.02724));
#1616=CARTESIAN_POINT('',(0.054,0.0285,0.02724));
#1617=CARTESIAN_POINT('',(-0.0585,0.024,0.02724));
#1618=CARTESIAN_POINT('',(-0.054,0.024,0.02724));
#1619=CARTESIAN_POINT('',(-0.054,0.0285,0.02724));
#1620=CARTESIAN_POINT('',(-0.054,-0.0285,0.02724));
#1621=CARTESIAN_POINT('',(-0.054,-0.024,0.02724));
#1622=CARTESIAN_POINT('',(-0.0585,-0.024,0.02724));
#1623=CARTESIAN_POINT('',(0.0585,-0.024,0.02724));
#1624=CARTESIAN_POINT('',(0.054,-0.024,0.02724));
#1625=CARTESIAN_POINT('',(0.054,-0.0285,0.02724));
#1626=CARTESIAN_POINT('',(0.0615,0.028,0.01));
#1627=CARTESIAN_POINT('',(0.058,0.028,0.01));
#1628=CARTESIAN_POINT('',(0.058,0.028,0.01));
#1629=CARTESIAN_POINT('',(0.0615,0.028,0.01));
#1630=CARTESIAN_POINT('',(0.058,0.0315,0.01));
#1631=CARTESIAN_POINT('',(0.058,0.0315,0.01));
#1632=CARTESIAN_POINT('',(0.,0.,0.01));
#1633=CARTESIAN_POINT('',(-0.0615,0.028,0.01));
#1634=CARTESIAN_POINT('',(-0.0615,0.028,0.01));
#1635=CARTESIAN_POINT('',(-0.058,0.028,0.01));
#1636=CARTESIAN_POINT('',(-0.058,0.028,0.01));
#1637=CARTESIAN_POINT('',(-0.058,0.0315,0.01));
#1638=CARTESIAN_POINT('',(-0.058,0.0315,0.01));
#1639=CARTESIAN_POINT('',(0.,0.,0.01));
#1640=CARTESIAN_POINT('',(-0.0615,-0.028,0.01));
#1641=CARTESIAN_POINT('',(-0.058,-0.028,0.01));
#1642=CARTESIAN_POINT('',(-0.058,-0.028,0.01));
#1643=CARTESIAN_POINT('',(-0.0615,-0.028,0.01));
#1644=CARTESIAN_POINT('',(-0.058,-0.0315,0.01));
#1645=CARTESIAN_POINT('',(-0.058,-0.0315,0.01));
#1646=CARTESIAN_POINT('',(0.,0.,0.01));
#1647=CARTESIAN_POINT('',(0.0615,-0.028,0.01));
#1648=CARTESIAN_POINT('',(0.0615,-0.028,0.01));
#1649=CARTESIAN_POINT('',(0.058,-0.028,0.01));
#1650=CARTESIAN_POINT('',(0.058,-0.028,0.01));
#1651=CARTESIAN_POINT('',(0.058,-0.0315,0.01));
#1652=CARTESIAN_POINT('',(0.058,-0.0315,0.01));
#1653=CARTESIAN_POINT('',(0.,0.,0.01));
#1654=MECHANICAL_DESIGN_GEOMETRIC_PRESENTATION_REPRESENTATION('',(#1027),#1655);
#1655=(
GEOMETRIC_REPRESENTATION_CONTEXT(3)
GLOBAL_UNCERTAINTY_ASSIGNED_CONTEXT((#1656))
GLOBAL_UNIT_ASSIGNED_CONTEXT((#1659,#1658,#1657))
REPRESENTATION_CONTEXT('Part 1','TOP_LEVEL_ASSEMBLY_PART')
);
#1656=UNCERTAINTY_MEASURE_WITH_UNIT(LENGTH_MEASURE(1.E-08),#1659,'DISTANCE_ACCURACY_VALUE','Maximum Tolerance applied to model');
#1657=(
NAMED_UNIT(*)
SI_UNIT($,.STERADIAN.)
SOLID_ANGLE_UNIT()
);
#1658=(
NAMED_UNIT(*)
PLANE_ANGLE_UNIT()
SI_UNIT($,.RADIAN.)
);
#1659=(
LENGTH_UNIT()
NAMED_UNIT(*)
SI_UNIT($,.METRE.)
);
#1660=PRODUCT_DEFINITION_SHAPE('','',#1661);
#1661=PRODUCT_DEFINITION('','',#1663,#1662);
#1662=PRODUCT_DEFINITION_CONTEXT('',#1669,'design');
#1663=PRODUCT_DEFINITION_FORMATION_WITH_SPECIFIED_SOURCE('','',#1665,.NOT_KNOWN.);
#1664=PRODUCT_RELATED_PRODUCT_CATEGORY('','',(#1665));
#1665=PRODUCT('Part 1','Part 1','Part 1',(#1667));
#1666=PRODUCT_CATEGORY('','');
#1667=PRODUCT_CONTEXT('',#1669,'mechanical');
#1668=APPLICATION_PROTOCOL_DEFINITION('international standard','ap242_managed_model_based_3d_engineering',2020,#1669);
#1669=APPLICATION_CONTEXT('managed model based 3d engineering');
#1670=SHAPE_ASPECT('DISTANCE.FA5GpY5vmsnJMov_1',$,#1660,.T.);
#1671=GEOMETRIC_ITEM_SPECIFIC_USAGE('','',#1670,#11,#982);
#1672=SHAPE_ASPECT('DISTANCE.FA5GpY5vmsnJMov_1',$,#1660,.T.);
#1673=GEOMETRIC_ITEM_SPECIFIC_USAGE('','',#1672,#11,#984);
#1674=DIMENSIONAL_LOCATION('linear distance','DISTANCE.FA5GpY5vmsnJMov_1',#1670,#1672);
#1676=(
LENGTH_UNIT()
NAMED_UNIT(*)
SI_UNIT(.MILLI.,.METRE.)
);
#1677=PRECISION_QUALIFIER(3);
#1675=(
LENGTH_MEASURE_WITH_UNIT()
MEASURE_REPRESENTATION_ITEM()
MEASURE_WITH_UNIT(POSITIVE_LENGTH_MEASURE(25.24),#1676)
QUALIFIED_REPRESENTATION_ITEM((#1677))
REPRESENTATION_ITEM('nominal value')
);
#1678=SHAPE_DIMENSION_REPRESENTATION('',(#1675),#1655);
#1679=DIMENSIONAL_CHARACTERISTIC_REPRESENTATION(#1674,#1678);
#1680=PRESENTATION_STYLE_ASSIGNMENT((NULL_STYLE(.NULL.)));
#1681=CARTESIAN_POINT('',(0.,0.0495,0.01462));
#1682=DIRECTION('',(-1.,0.,0.));
#1683=DIRECTION('',(0.,0.,1.));
#1684=AXIS2_PLACEMENT_3D('',#1681,#1682,#1683);
#1685=PLANE('',#1684);
#1686=ANNOTATION_PLANE('',(#1680),#1685,(#1713));
#1687=CARTESIAN_POINT('',(0.,0.,0.));
#1688=DIRECTION('',(0.,0.,1.));
#1689=DIRECTION('',(1.,0.,0.));
#1690=AXIS2_PLACEMENT_3D('',#1687,#1688,#1689);
#1691=CARTESIAN_POINT('',(0.,0.,0.));
#1692=DIRECTION('',(0.,0.,1.));
#1693=DIRECTION('',(1.,0.,0.));
#1694=AXIS2_PLACEMENT_3D('',#1691,#1692,#1693);
#1695=SHAPE_REPRESENTATION('',(#1694,#1035),#1655);
#1696=REPRESENTATION_MAP(#1690,#1695);
#1697=MAPPED_ITEM('',#1696,#1690);
#1698=PRESENTATION_STYLE_ASSIGNMENT((NULL_STYLE(.NULL.)));
#1699=STYLED_ITEM('',(#1698),#1697);
#1700=DRAUGHTING_MODEL('',(#1686,#1690,#1697,#1699),#1655);
#1701=DRAUGHTING_PRE_DEFINED_CURVE_FONT('continuous');
#1702=COLOUR_RGB('',0.,0.,0.);
#1703=CURVE_STYLE('',#1701,POSITIVE_LENGTH_MEASURE(0.02),#1702);
#1704=PRESENTATION_STYLE_ASSIGNMENT((#1703));
#1705=COORDINATES_LIST('coordinates',1074,((0.,0.0503944,0.0046833),(0.,0.0495000,0.0020000),(0.,0.0486056,0.0046833),(0.,0.0486056,0.0245567),(0.,0.0495000,0.0272400),(0.,0.0503944,0.0245567),(0.,0.0484734,0.0118038),(0.,0.0484247,0.0118059),(0.,0.0483326,0.0118298),(0.,0.0484734,0.0118038),(0.,0.0483326,0.0118298),(0.,0.0482463,0.0118577),(0.,0.0484734,0.0118038),(0.,0.0482463,0.0118577),(0.,0.0481658,0.0118895),(0.,0.0484734,0.0118038),(0.,0.0481658,0.0118895),(0.,0.0480911,0.0119252),(0.,0.0484734,0.0118038),(0.,0.0480911,0.0119252),(0.,0.0480222,0.0119649),(0.,0.0484734,0.0118038),(0.,0.0480222,0.0119649),(0.,0.0479590,0.0120085),(0.,0.0484734,0.0118038),(0.,0.0479590,0.0120085),(0.,0.0478501,0.0121075),(0.,0.0484734,0.0118038),(0.,0.0478501,0.0121075),(0.,0.0477806,0.0121885),(0.,0.0484734,0.0118038),(0.,0.0477806,0.0121885),(0.,0.0477204,0.0122716),(0.,0.0484734,0.0118038),(0.,0.0477204,0.0122716),(0.,0.0476695,0.0123569),(0.,0.0484734,0.0118038),(0.,0.0476695,0.0123569),(0.,0.0476278,0.0124443),(0.,0.0484734,0.0118038),(0.,0.0476278,0.0124443),(0.,0.0475954,0.0125339),(0.,0.0484734,0.0118038),(0.,0.0475954,0.0125339),(0.,0.0475722,0.0126256),(0.,0.0484734,0.0118038),(0.,0.0475722,0.0126256),(0.,0.0475584,0.0127195),(0.,0.0484734,0.0118038),(0.,0.0475584,0.0127195),(0.,0.0475537,0.0128155),(0.,0.0484734,0.0118038),(0.,0.0475537,0.0128155),(0.,0.0475584,0.0129108),(0.,0.0484734,0.0118038),(0.,0.0475584,0.0129108),(0.,0.0475726,0.0130034),(0.,0.0484734,0.0118038),(0.,0.0475726,0.0130034),(0.,0.0475961,0.0130934),(0.,0.0484734,0.0118038),(0.,0.0475961,0.0130934),(0.,0.0476291,0.0131807),(0.,0.0476291,0.0131807),(0.,0.0476715,0.0132653),(0.,0.0477234,0.0133474),(0.,0.0476291,0.0131807),(0.,0.0477234,0.0133474),(0.,0.0477847,0.0134267),(0.,0.0476291,0.0131807),(0.,0.0477847,0.0134267),(0.,0.0478554,0.0135035),(0.,0.0476291,0.0131807),(0.,0.0478554,0.0135035),(0.,0.0479436,0.0135836),(0.,0.0476291,0.0131807),(0.,0.0479436,0.0135836),(0.,0.0480384,0.0136530),(0.,0.0476291,0.0131807),(0.,0.0480384,0.0136530),(0.,0.0481399,0.0137118),(0.,0.0476291,0.0131807),(0.,0.0481399,0.0137118),(0.,0.0482480,0.0137598),(0.,0.0476291,0.0131807),(0.,0.0482480,0.0137598),(0.,0.0483627,0.0137972),(0.,0.0476291,0.0131807),(0.,0.0483627,0.0137972),(0.,0.0484840,0.0138239),(0.,0.0476291,0.0131807),(0.,0.0484840,0.0138239),(0.,0.0486119,0.0138400),(0.,0.0476291,0.0131807),(0.,0.0486119,0.0138400),(0.,0.0487465,0.0138453),(0.,0.0476291,0.0131807),(0.,0.0487465,0.0138453),(0.,0.0488497,0.0138440),(0.,0.0476291,0.0131807),(0.,0.0488497,0.0138440),(0.,0.0489490,0.0138401),(0.,0.0476291,0.0131807),(0.,0.0489490,0.0138401),(0.,0.0490442,0.0138337),(0.,0.0476291,0.0131807),(0.,0.0490442,0.0138337),(0.,0.0491353,0.0138247),(0.,0.0476291,0.0131807),(0.,0.0491353,0.0138247),(0.,0.0492224,0.0138131),(0.,0.0476291,0.0131807),(0.,0.0492224,0.0138131),(0.,0.0493055,0.0137989),(0.,0.0476291,0.0131807),(0.,0.0493055,0.0137989),(0.,0.0493845,0.0137821),(0.,0.0476291,0.0131807),(0.,0.0493845,0.0137821),(0.,0.0494595,0.0137628),(0.,0.0476291,0.0131807),(0.,0.0494595,0.0137628),(0.,0.0495974,0.0137163),(0.,0.0495974,0.0137163),(0.,0.0497190,0.0136596),(0.,0.0498245,0.0135925),(0.,0.0495974,0.0137163),(0.,0.0498245,0.0135925),(0.,0.0499138,0.0135151),(0.,0.0495974,0.0137163),(0.,0.0499138,0.0135151),(0.,0.0499833,0.0134356),(0.,0.0495974,0.0137163),(0.,0.0499833,0.0134356),(0.,0.0500435,0.0133538),(0.,0.0495974,0.0137163),(0.,0.0500435,0.0133538),(0.,0.0500944,0.0132696),(0.,0.0495974,0.0137163),(0.,0.0500944,0.0132696),(0.,0.0501361,0.0131830),(0.,0.0495974,0.0137163),(0.,0.0501361,0.0131830),(0.,0.0501685,0.0130942),(0.,0.0495974,0.0137163),(0.,0.0501685,0.0130942),(0.,0.0501916,0.0130029),(0.,0.0495974,0.0137163),(0.,0.0501916,0.0130029),(0.,0.0502055,0.0129094),(0.,0.0495974,0.0137163),(0.,0.0502055,0.0129094),(0.,0.0502101,0.0128134),(0.,0.0495974,0.0137163),(0.,0.0502101,0.0128134),(0.,0.0502069,0.0127281),(0.,0.0495974,0.0137163),(0.,0.0502069,0.0127281),(0.,0.0501971,0.0126457),(0.,0.0495974,0.0137163),(0.,0.0501971,0.0126457),(0.,0.0501808,0.0125663),(0.,0.0495974,0.0137163),(0.,0.0501808,0.0125663),(0.,0.0501580,0.0124898),(0.,0.0495974,0.0137163),(0.,0.0501580,0.0124898),(0.,0.0500929,0.0123457),(0.,0.0495974,0.0137163),(0.,0.0500929,0.0123457),(0.,0.0500017,0.0122134),(0.,0.0511796,0.0122557),(0.,0.0511796,0.0135310),(0.,0.0511955,0.0136125),(0.,0.0511796,0.0122557),(0.,0.0511955,0.0136125),(0.,0.0512431,0.0136813),(0.,0.0511796,0.0122557),(0.,0.0512431,0.0136813),(0.,0.0513124,0.0137281),(0.,0.0511796,0.0122557),(0.,0.0513124,0.0137281),(0.,0.0513934,0.0137437),(0.,0.0511796,0.0122557),(0.,0.0513934,0.0137437),(0.,0.0514741,0.0137281),(0.,0.0511796,0.0122557),(0.,0.0514741,0.0137281),(0.,0.0515426,0.0136813),(0.,0.0511796,0.0122557),(0.,0.0515426,0.0136813),(0.,0.0515902,0.0136125),(0.,0.0511796,0.0122557),(0.,0.0515902,0.0136125),(0.,0.0516061,0.0135310),(0.,0.0511796,0.0122557),(0.,0.0516061,0.0135310),(0.,0.0516061,0.0120588),(0.,0.0500017,0.0122134),(0.,0.0511796,0.0122557),(0.,0.0516061,0.0120588),(0.,0.0500017,0.0122134),(0.,0.0516061,0.0120588),(0.,0.0515921,0.0119784),(0.,0.0500017,0.0122134),(0.,0.0515921,0.0119784),(0.,0.0515500,0.0119086),(0.,0.0500017,0.0122134),(0.,0.0515500,0.0119086),(0.,0.0514849,0.0118609),(0.,0.0500017,0.0122134),(0.,0.0514849,0.0118609),(0.,0.0514061,0.0118451),(0.,0.0500017,0.0122134),(0.,0.0514061,0.0118451),(0.,0.0493413,0.0117646),(0.,0.0500017,0.0122134),(0.,0.0493413,0.0117646),(0.,0.0492619,0.0117778),(0.,0.0500017,0.0122134),(0.,0.0492619,0.0117778),(0.,0.0491910,0.0118175),(0.,0.0500017,0.0122134),(0.,0.0491910,0.0118175),(0.,0.0491370,0.0118826),(0.,0.0500017,0.0122134),(0.,0.0491370,0.0118826),(0.,0.0491190,0.0119657),(0.,0.0500017,0.0122134),(0.,0.0491190,0.0119657),(0.,0.0491325,0.0120469),(0.,0.0500017,0.0122134),(0.,0.0491325,0.0120469),(0.,0.0491730,0.0121192),(0.,0.0500017,0.0122134),(0.,0.0491730,0.0121192),(0.,0.0492746,0.0121816),(0.,0.0500017,0.0122134),(0.,0.0492746,0.0121816),(0.,0.0493597,0.0122156),(0.,0.0500017,0.0122134),(0.,0.0493597,0.0122156),(0.,0.0494436,0.0122647),(0.,0.0500017,0.0122134),(0.,0.0494436,0.0122647),(0.,0.0495264,0.0123288),(0.,0.0500017,0.0122134),(0.,0.0495264,0.0123288),(0.,0.0496080,0.0124081),(0.,0.0500017,0.0122134),(0.,0.0496080,0.0124081),(0.,0.0496857,0.0125037),(0.,0.0500017,0.0122134),(0.,0.0496857,0.0125037),(0.,0.0497413,0.0126031),(0.,0.0500017,0.0122134),(0.,0.0497413,0.0126031),(0.,0.0497746,0.0127063),(0.,0.0500017,0.0122134),(0.,0.0497746,0.0127063),(0.,0.0497858,0.0128134),(0.,0.0500017,0.0122134),(0.,0.0497858,0.0128134),(0.,0.0497746,0.0129199),(0.,0.0495974,0.0137163),(0.,0.0500017,0.0122134),(0.,0.0497746,0.0129199),(0.,0.0495974,0.0137163),(0.,0.0497746,0.0129199),(0.,0.0497413,0.0130224),(0.,0.0495974,0.0137163),(0.,0.0497413,0.0130224),(0.,0.0496857,0.0131210),(0.,0.0495974,0.0137163),(0.,0.0496857,0.0131210),(0.,0.0496080,0.0132156),(0.,0.0495974,0.0137163),(0.,0.0496080,0.0132156),(0.,0.0494794,0.0133059),(0.,0.0495974,0.0137163),(0.,0.0494794,0.0133059),(0.,0.0493932,0.0133414),(0.,0.0495974,0.0137163),(0.,0.0493932,0.0133414),(0.,0.0492926,0.0133704),(0.,0.0495974,0.0137163),(0.,0.0492926,0.0133704),(0.,0.0491773,0.0133929),(0.,0.0495974,0.0137163),(0.,0.0491773,0.0133929),(0.,0.0490476,0.0134091),(0.,0.0495974,0.0137163),(0.,0.0490476,0.0134091),(0.,0.0489032,0.0134187),(0.,0.0495974,0.0137163),(0.,0.0489032,0.0134187),(0.,0.0487444,0.0134220),(0.,0.0495974,0.0137163),(0.,0.0487444,0.0134220),(0.,0.0486529,0.0134185),(0.,0.0495974,0.0137163),(0.,0.0486529,0.0134185),(0.,0.0485664,0.0134082),(0.,0.0495974,0.0137163),(0.,0.0485664,0.0134082),(0.,0.0484849,0.0133910),(0.,0.0476291,0.0131807),(0.,0.0495974,0.0137163),(0.,0.0484849,0.0133910),(0.,0.0476291,0.0131807),(0.,0.0484849,0.0133910),(0.,0.0484083,0.0133669),(0.,0.0476291,0.0131807),(0.,0.0484083,0.0133669),(0.,0.0482701,0.0132981),(0.,0.0476291,0.0131807),(0.,0.0482701,0.0132981),(0.,0.0481517,0.0132018),(0.,0.0476291,0.0131807),(0.,0.0481517,0.0132018),(0.,0.0480757,0.0131106),(0.,0.0476291,0.0131807),(0.,0.0480757,0.0131106),(0.,0.0480215,0.0130145),(0.,0.0476291,0.0131807),(0.,0.0480215,0.0130145),(0.,0.0479890,0.0129137),(0.,0.0476291,0.0131807),(0.,0.0479890,0.0129137),(0.,0.0479781,0.0128081),(0.,0.0476291,0.0131807),(0.,0.0479781,0.0128081),(0.,0.0479894,0.0127055),(0.,0.0476291,0.0131807),(0.,0.0479894,0.0127055),(0.,0.0480231,0.0126031),(0.,0.0476291,0.0131807),(0.,0.0480231,0.0126031),(0.,0.0480793,0.0125008),(0.,0.0484734,0.0118038),(0.,0.0476291,0.0131807),(0.,0.0480793,0.0125008),(0.,0.0484734,0.0118038),(0.,0.0480793,0.0125008),(0.,0.0481580,0.0123986),(0.,0.0484734,0.0118038),(0.,0.0481580,0.0123986),(0.,0.0483009,0.0122964),(0.,0.0484734,0.0118038),(0.,0.0483009,0.0122964),(0.,0.0484009,0.0122569),(0.,0.0484734,0.0118038),(0.,0.0484009,0.0122569),(0.,0.0485200,0.0122250),(0.,0.0484734,0.0118038),(0.,0.0485200,0.0122250),(0.,0.0485927,0.0121809),(0.,0.0484734,0.0118038),(0.,0.0485927,0.0121809),(0.,0.0486446,0.0121324),(0.,0.0484734,0.0118038),(0.,0.0486446,0.0121324),(0.,0.0486861,0.0120218),(0.,0.0484734,0.0118038),(0.,0.0486861,0.0120218),(0.,0.0486861,0.0120144),(0.,0.0484734,0.0118038),(0.,0.0486861,0.0120144),(0.,0.0486705,0.0119405),(0.,0.0484734,0.0118038),(0.,0.0486705,0.0119405),(0.,0.0486298,0.0118808),(0.,0.0492185,0.0197286),(0.,0.0492185,0.0193232),(0.,0.0492047,0.0186332),(0.,0.0492185,0.0199709),(0.,0.0492185,0.0197286),(0.,0.0492047,0.0186332),(0.,0.0505541,0.0193232),(0.,0.0492185,0.0193232),(0.,0.0492185,0.0197286),(0.,0.0505541,0.0193232),(0.,0.0492185,0.0197286),(0.,0.0514061,0.0197286),(0.,0.0492047,0.0186332),(0.,0.0505541,0.0193232),(0.,0.0514061,0.0197286),(0.,0.0492047,0.0186332),(0.,0.0514061,0.0197286),(0.,0.0514809,0.0197188),(0.,0.0492047,0.0186332),(0.,0.0514809,0.0197188),(0.,0.0515384,0.0196894),(0.,0.0492047,0.0186332),(0.,0.0515384,0.0196894),(0.,0.0516124,0.0195804),(0.,0.0492047,0.0186332),(0.,0.0516124,0.0195804),(0.,0.0516198,0.0195201),(0.,0.0492047,0.0186332),(0.,0.0516198,0.0195201),(0.,0.0516103,0.0194439),(0.,0.0492047,0.0186332),(0.,0.0516103,0.0194439),(0.,0.0515267,0.0193370),(0.,0.0492047,0.0186332),(0.,0.0515267,0.0193370),(0.,0.0491074,0.0180596),(0.,0.0492185,0.0199709),(0.,0.0492047,0.0186332),(0.,0.0491074,0.0180596),(0.,0.0492185,0.0199709),(0.,0.0491074,0.0180596),(0.,0.0489804,0.0180247),(0.,0.0492185,0.0199709),(0.,0.0489804,0.0180247),(0.,0.0488925,0.0180501),(0.,0.0492185,0.0199709),(0.,0.0488925,0.0180501),(0.,0.0488179,0.0181271),(0.,0.0492185,0.0199709),(0.,0.0488179,0.0181271),(0.,0.0487930,0.0182374),(0.,0.0492185,0.0199709),(0.,0.0487930,0.0182374),(0.,0.0487930,0.0193021),(0.,0.0487930,0.0193021),(0.,0.0477813,0.0193021),(0.,0.0476979,0.0193177),(0.,0.0487930,0.0193021),(0.,0.0476979,0.0193177),(0.,0.0476299,0.0193645),(0.,0.0487930,0.0193021),(0.,0.0476299,0.0193645),(0.,0.0475839,0.0194333),(0.,0.0487930,0.0193021),(0.,0.0475839,0.0194333),(0.,0.0475685,0.0195148),(0.,0.0487930,0.0193021),(0.,0.0475685,0.0195148),(0.,0.0475839,0.0195971),(0.,0.0487930,0.0193021),(0.,0.0475839,0.0195971),(0.,0.0476299,0.0196661),(0.,0.0487930,0.0193021),(0.,0.0476299,0.0196661),(0.,0.0476979,0.0197130),(0.,0.0487930,0.0193021),(0.,0.0476979,0.0197130),(0.,0.0477813,0.0197286),(0.,0.0487930,0.0193021),(0.,0.0477813,0.0197286),(0.,0.0487930,0.0197286),(0.,0.0492185,0.0199709),(0.,0.0487930,0.0193021),(0.,0.0487930,0.0197286),(0.,0.0492185,0.0199709),(0.,0.0487930,0.0197286),(0.,0.0487930,0.0199709),(0.,0.0492185,0.0199709),(0.,0.0487930,0.0199709),(0.,0.0488086,0.0200545),(0.,0.0492185,0.0199709),(0.,0.0488086,0.0200545),(0.,0.0488555,0.0201233),(0.,0.0492185,0.0199709),(0.,0.0488555,0.0201233),(0.,0.0489243,0.0201694),(0.,0.0492185,0.0199709),(0.,0.0489243,0.0201694),(0.,0.0490058,0.0201847),(0.,0.0492185,0.0199709),(0.,0.0490058,0.0201847),(0.,0.0490873,0.0201694),(0.,0.0492185,0.0199709),(0.,0.0490873,0.0201694),(0.,0.0491560,0.0201233),(0.,0.0492185,0.0199709),(0.,0.0491560,0.0201233),(0.,0.0492029,0.0200545),(0.,0.0479781,0.0159884),(0.,0.0495688,0.0171600),(0.,0.0496625,0.0172245),(0.,0.0479781,0.0159884),(0.,0.0496625,0.0172245),(0.,0.0497602,0.0172804),(0.,0.0479781,0.0159884),(0.,0.0497602,0.0172804),(0.,0.0498616,0.0173277),(0.,0.0479781,0.0159884),(0.,0.0498616,0.0173277),(0.,0.0499670,0.0173664),(0.,0.0479781,0.0159884),(0.,0.0499670,0.0173664),(0.,0.0500762,0.0173965),(0.,0.0479781,0.0159884),(0.,0.0500762,0.0173965),(0.,0.0501893,0.0174180),(0.,0.0479781,0.0159884),(0.,0.0501893,0.0174180),(0.,0.0503063,0.0174309),(0.,0.0479781,0.0159884),(0.,0.0503063,0.0174309),(0.,0.0504271,0.0174352),(0.,0.0479781,0.0159884),(0.,0.0504271,0.0174352),(0.,0.0505521,0.0174300),(0.,0.0479781,0.0159884),(0.,0.0505521,0.0174300),(0.,0.0506724,0.0174147),(0.,0.0479781,0.0159884),(0.,0.0506724,0.0174147),(0.,0.0507882,0.0173890),(0.,0.0479781,0.0159884),(0.,0.0507882,0.0173890),(0.,0.0508994,0.0173531),(0.,0.0508994,0.0173531),(0.,0.0510060,0.0173070),(0.,0.0511079,0.0172506),(0.,0.0508994,0.0173531),(0.,0.0511079,0.0172506),(0.,0.0512053,0.0171840),(0.,0.0508994,0.0173531),(0.,0.0512053,0.0171840),(0.,0.0512981,0.0171071),(0.,0.0508994,0.0173531),(0.,0.0512981,0.0171071),(0.,0.0513713,0.0170342),(0.,0.0508994,0.0173531),(0.,0.0513713,0.0170342),(0.,0.0514347,0.0169568),(0.,0.0508994,0.0173531),(0.,0.0514347,0.0169568),(0.,0.0514884,0.0168749),(0.,0.0508994,0.0173531),(0.,0.0514884,0.0168749),(0.,0.0515323,0.0167885),(0.,0.0508994,0.0173531),(0.,0.0515323,0.0167885),(0.,0.0515664,0.0166976),(0.,0.0508994,0.0173531),(0.,0.0515664,0.0166976),(0.,0.0515908,0.0166023),(0.,0.0508994,0.0173531),(0.,0.0515908,0.0166023),(0.,0.0516054,0.0165024),(0.,0.0508994,0.0173531),(0.,0.0516054,0.0165024),(0.,0.0516103,0.0163980),(0.,0.0508994,0.0173531),(0.,0.0516103,0.0163980),(0.,0.0516055,0.0162995),(0.,0.0508994,0.0173531),(0.,0.0516055,0.0162995),(0.,0.0515912,0.0162040),(0.,0.0508994,0.0173531),(0.,0.0515912,0.0162040),(0.,0.0515673,0.0161115),(0.,0.0508994,0.0173531),(0.,0.0515673,0.0161115),(0.,0.0515339,0.0160220),(0.,0.0508994,0.0173531),(0.,0.0515339,0.0160220),(0.,0.0514908,0.0159356),(0.,0.0508994,0.0173531),(0.,0.0514908,0.0159356),(0.,0.0514383,0.0158521),(0.,0.0514383,0.0158521),(0.,0.0513761,0.0157716),(0.,0.0513045,0.0156942),(0.,0.0514383,0.0158521),(0.,0.0513045,0.0156942),(0.,0.0512179,0.0156151),(0.,0.0514383,0.0158521),(0.,0.0512179,0.0156151),(0.,0.0511251,0.0155465),(0.,0.0514383,0.0158521),(0.,0.0511251,0.0155465),(0.,0.0510259,0.0154885),(0.,0.0514383,0.0158521),(0.,0.0510259,0.0154885),(0.,0.0509203,0.0154410),(0.,0.0514383,0.0158521),(0.,0.0509203,0.0154410),(0.,0.0508084,0.0154041),(0.,0.0514383,0.0158521),(0.,0.0508084,0.0154041),(0.,0.0506901,0.0153777),(0.,0.0514383,0.0158521),(0.,0.0506901,0.0153777),(0.,0.0505655,0.0153619),(0.,0.0514383,0.0158521),(0.,0.0505655,0.0153619),(0.,0.0504345,0.0153566),(0.,0.0514383,0.0158521),(0.,0.0504345,0.0153566),(0.,0.0504292,0.0153566),(0.,0.0514383,0.0158521),(0.,0.0504292,0.0153566),(0.,0.0503477,0.0153722),(0.,0.0514383,0.0158521),(0.,0.0503477,0.0153722),(0.,0.0502789,0.0154190),(0.,0.0514383,0.0158521),(0.,0.0502789,0.0154190),(0.,0.0502321,0.0154878),(0.,0.0514383,0.0158521),(0.,0.0502321,0.0154878),(0.,0.0502165,0.0155693),(0.,0.0514383,0.0158521),(0.,0.0502165,0.0155693),(0.,0.0502321,0.0156508),(0.,0.0514383,0.0158521),(0.,0.0502321,0.0156508),(0.,0.0502789,0.0157196),(0.,0.0514383,0.0158521),(0.,0.0502789,0.0157196),(0.,0.0503477,0.0157672),(0.,0.0503477,0.0157672),(0.,0.0504292,0.0157831),(0.,0.0504345,0.0157831),(0.,0.0503477,0.0157672),(0.,0.0504345,0.0157831),(0.,0.0505214,0.0157864),(0.,0.0514383,0.0158521),(0.,0.0503477,0.0157672),(0.,0.0505214,0.0157864),(0.,0.0514383,0.0158521),(0.,0.0505214,0.0157864),(0.,0.0506038,0.0157964),(0.,0.0514383,0.0158521),(0.,0.0506038,0.0157964),(0.,0.0506818,0.0158130),(0.,0.0514383,0.0158521),(0.,0.0506818,0.0158130),(0.,0.0507552,0.0158363),(0.,0.0514383,0.0158521),(0.,0.0507552,0.0158363),(0.,0.0508885,0.0159028),(0.,0.0514383,0.0158521),(0.,0.0508885,0.0159028),(0.,0.0510039,0.0159958),(0.,0.0514383,0.0158521),(0.,0.0510039,0.0159958),(0.,0.0510826,0.0160867),(0.,0.0514383,0.0158521),(0.,0.0510826,0.0160867),(0.,0.0511388,0.0161837),(0.,0.0514383,0.0158521),(0.,0.0511388,0.0161837),(0.,0.0511726,0.0162867),(0.,0.0514383,0.0158521),(0.,0.0511726,0.0162867),(0.,0.0511838,0.0163959),(0.,0.0514383,0.0158521),(0.,0.0511838,0.0163959),(0.,0.0511730,0.0165091),(0.,0.0514383,0.0158521),(0.,0.0511730,0.0165091),(0.,0.0511404,0.0166128),(0.,0.0508994,0.0173531),(0.,0.0514383,0.0158521),(0.,0.0511404,0.0166128),(0.,0.0508994,0.0173531),(0.,0.0511404,0.0166128),(0.,0.0510862,0.0167070),(0.,0.0508994,0.0173531),(0.,0.0510862,0.0167070),(0.,0.0510102,0.0167917),(0.,0.0508994,0.0173531),(0.,0.0510102,0.0167917),(0.,0.0509491,0.0168433),(0.,0.0508994,0.0173531),(0.,0.0509491,0.0168433),(0.,0.0508846,0.0168880),(0.,0.0508994,0.0173531),(0.,0.0508846,0.0168880),(0.,0.0507459,0.0169568),(0.,0.0508994,0.0173531),(0.,0.0507459,0.0169568),(0.,0.0505941,0.0169981),(0.,0.0508994,0.0173531),(0.,0.0505941,0.0169981),(0.,0.0505133,0.0170084),(0.,0.0508994,0.0173531),(0.,0.0505133,0.0170084),(0.,0.0504292,0.0170118),(0.,0.0508994,0.0173531),(0.,0.0504292,0.0170118),(0.,0.0503425,0.0170089),(0.,0.0508994,0.0173531),(0.,0.0503425,0.0170089),(0.,0.0502591,0.0170001),(0.,0.0508994,0.0173531),(0.,0.0502591,0.0170001),(0.,0.0501790,0.0169855),(0.,0.0508994,0.0173531),(0.,0.0501790,0.0169855),(0.,0.0501022,0.0169650),(0.,0.0508994,0.0173531),(0.,0.0501022,0.0169650),(0.,0.0499585,0.0169065),(0.,0.0479781,0.0159884),(0.,0.0508994,0.0173531),(0.,0.0499585,0.0169065),(0.,0.0479781,0.0159884),(0.,0.0499585,0.0169065),(0.,0.0498281,0.0168245),(0.,0.0479781,0.0159884),(0.,0.0498281,0.0168245),(0.,0.0478945,0.0154011),(0.,0.0479781,0.0172246),(0.,0.0479781,0.0159884),(0.,0.0478945,0.0154011),(0.,0.0479781,0.0172246),(0.,0.0478945,0.0154011),(0.,0.0477696,0.0153545),(0.,0.0479781,0.0172246),(0.,0.0477696,0.0153545),(0.,0.0477347,0.0153566),(0.,0.0479781,0.0172246),(0.,0.0477347,0.0153566),(0.,0.0476561,0.0153831),(0.,0.0479781,0.0172246),(0.,0.0476561,0.0153831),(0.,0.0476003,0.0154349),(0.,0.0479781,0.0172246),(0.,0.0476003,0.0154349),(0.,0.0475654,0.0155034),(0.,0.0479781,0.0172246),(0.,0.0475654,0.0155034),(0.,0.0475537,0.0155693),(0.,0.0479781,0.0172246),(0.,0.0475537,0.0155693),(0.,0.0475537,0.0172246),(0.,0.0479781,0.0172246),(0.,0.0475537,0.0172246),(0.,0.0475688,0.0173079),(0.,0.0479781,0.0172246),(0.,0.0475688,0.0173079),(0.,0.0476141,0.0173759),(0.,0.0479781,0.0172246),(0.,0.0476141,0.0173759),(0.,0.0476820,0.0174204),(0.,0.0479781,0.0172246),(0.,0.0476820,0.0174204),(0.,0.0477654,0.0174352),(0.,0.0479781,0.0172246),(0.,0.0477654,0.0174352),(0.,0.0478495,0.0174204),(0.,0.0479781,0.0172246),(0.,0.0478495,0.0174204),(0.,0.0479178,0.0173759),(0.,0.0479781,0.0172246),(0.,0.0479178,0.0173759),(0.,0.0479630,0.0173100),(0.,0.0479781,0.0096892),(0.,0.0495688,0.0108608),(0.,0.0496625,0.0109253),(0.,0.0479781,0.0096892),(0.,0.0496625,0.0109253),(0.,0.0497602,0.0109812),(0.,0.0479781,0.0096892),(0.,0.0497602,0.0109812),(0.,0.0498616,0.0110285),(0.,0.0479781,0.0096892),(0.,0.0498616,0.0110285),(0.,0.0499670,0.0110672),(0.,0.0479781,0.0096892),(0.,0.0499670,0.0110672),(0.,0.0500762,0.0110973),(0.,0.0479781,0.0096892),(0.,0.0500762,0.0110973),(0.,0.0501893,0.0111188),(0.,0.0479781,0.0096892),(0.,0.0501893,0.0111188),(0.,0.0503063,0.0111317),(0.,0.0479781,0.0096892),(0.,0.0503063,0.0111317),(0.,0.0504271,0.0111360),(0.,0.0479781,0.0096892),(0.,0.0504271,0.0111360),(0.,0.0505521,0.0111308),(0.,0.0479781,0.0096892),(0.,0.0505521,0.0111308),(0.,0.0506724,0.0111155),(0.,0.0479781,0.0096892),(0.,0.0506724,0.0111155),(0.,0.0507882,0.0110898),(0.,0.0479781,0.0096892),(0.,0.0507882,0.0110898),(0.,0.0508994,0.0110539),(0.,0.0508994,0.0110539),(0.,0.0510060,0.0110078),(0.,0.0511079,0.0109514),(0.,0.0508994,0.0110539),(0.,0.0511079,0.0109514),(0.,0.0512053,0.0108848),(0.,0.0508994,0.0110539),(0.,0.0512053,0.0108848),(0.,0.0512981,0.0108079),(0.,0.0508994,0.0110539),(0.,0.0512981,0.0108079),(0.,0.0513713,0.0107350),(0.,0.0508994,0.0110539),(0.,0.0513713,0.0107350),(0.,0.0514347,0.0106576),(0.,0.0508994,0.0110539),(0.,0.0514347,0.0106576),(0.,0.0514884,0.0105757),(0.,0.0508994,0.0110539),(0.,0.0514884,0.0105757),(0.,0.0515323,0.0104893),(0.,0.0508994,0.0110539),(0.,0.0515323,0.0104893),(0.,0.0515664,0.0103984),(0.,0.0508994,0.0110539),(0.,0.0515664,0.0103984),(0.,0.0515908,0.0103031),(0.,0.0508994,0.0110539),(0.,0.0515908,0.0103031),(0.,0.0516054,0.0102032),(0.,0.0508994,0.0110539),(0.,0.0516054,0.0102032),(0.,0.0516103,0.0100988),(0.,0.0508994,0.0110539),(0.,0.0516103,0.0100988),(0.,0.0516055,0.0100003),(0.,0.0508994,0.0110539),(0.,0.0516055,0.0100003),(0.,0.0515912,0.0099048),(0.,0.0508994,0.0110539),(0.,0.0515912,0.0099048),(0.,0.0515673,0.0098123),(0.,0.0508994,0.0110539),(0.,0.0515673,0.0098123),(0.,0.0515339,0.0097228),(0.,0.0508994,0.0110539),(0.,0.0515339,0.0097228),(0.,0.0514908,0.0096364),(0.,0.0508994,0.0110539),(0.,0.0514908,0.0096364),(0.,0.0514383,0.0095529),(0.,0.0514383,0.0095529),(0.,0.0513761,0.0094724),(0.,0.0513045,0.0093950),(0.,0.0514383,0.0095529),(0.,0.0513045,0.0093950),(0.,0.0512179,0.0093159),(0.,0.0514383,0.0095529),(0.,0.0512179,0.0093159),(0.,0.0511251,0.0092473),(0.,0.0514383,0.0095529),(0.,0.0511251,0.0092473),(0.,0.0510259,0.0091893),(0.,0.0514383,0.0095529),(0.,0.0510259,0.0091893),(0.,0.0509203,0.0091418),(0.,0.0514383,0.0095529),(0.,0.0509203,0.0091418),(0.,0.0508084,0.0091049),(0.,0.0514383,0.0095529),(0.,0.0508084,0.0091049),(0.,0.0506901,0.0090785),(0.,0.0514383,0.0095529),(0.,0.0506901,0.0090785),(0.,0.0505655,0.0090627),(0.,0.0514383,0.0095529),(0.,0.0505655,0.0090627),(0.,0.0504345,0.0090574),(0.,0.0514383,0.0095529),(0.,0.0504345,0.0090574),(0.,0.0504292,0.0090574),(0.,0.0514383,0.0095529),(0.,0.0504292,0.0090574),(0.,0.0503477,0.0090730),(0.,0.0514383,0.0095529),(0.,0.0503477,0.0090730),(0.,0.0502789,0.0091198),(0.,0.0514383,0.0095529),(0.,0.0502789,0.0091198),(0.,0.0502321,0.0091886),(0.,0.0514383,0.0095529),(0.,0.0502321,0.0091886),(0.,0.0502165,0.0092701),(0.,0.0514383,0.0095529),(0.,0.0502165,0.0092701),(0.,0.0502321,0.0093516),(0.,0.0514383,0.0095529),(0.,0.0502321,0.0093516),(0.,0.0502789,0.0094204),(0.,0.0514383,0.0095529),(0.,0.0502789,0.0094204),(0.,0.0503477,0.0094680),(0.,0.0503477,0.0094680),(0.,0.0504292,0.0094839),(0.,0.0504345,0.0094839),(0.,0.0503477,0.0094680),(0.,0.0504345,0.0094839),(0.,0.0505214,0.0094872),(0.,0.0514383,0.0095529),(0.,0.0503477,0.0094680),(0.,0.0505214,0.0094872),(0.,0.0514383,0.0095529),(0.,0.0505214,0.0094872),(0.,0.0506038,0.0094972),(0.,0.0514383,0.0095529),(0.,0.0506038,0.0094972),(0.,0.0506818,0.0095138),(0.,0.0514383,0.0095529),(0.,0.0506818,0.0095138),(0.,0.0507552,0.0095371),(0.,0.0514383,0.0095529),(0.,0.0507552,0.0095371),(0.,0.0508885,0.0096036),(0.,0.0514383,0.0095529),(0.,0.0508885,0.0096036),(0.,0.0510039,0.0096966),(0.,0.0514383,0.0095529),(0.,0.0510039,0.0096966),(0.,0.0510826,0.0097875),(0.,0.0514383,0.0095529),(0.,0.0510826,0.0097875),(0.,0.0511388,0.0098845),(0.,0.0514383,0.0095529),(0.,0.0511388,0.0098845),(0.,0.0511726,0.0099875),(0.,0.0514383,0.0095529),(0.,0.0511726,0.0099875),(0.,0.0511838,0.0100967),(0.,0.0514383,0.0095529),(0.,0.0511838,0.0100967),(0.,0.0511730,0.0102099),(0.,0.0514383,0.0095529),(0.,0.0511730,0.0102099),(0.,0.0511404,0.0103136),(0.,0.0508994,0.0110539),(0.,0.0514383,0.0095529),(0.,0.0511404,0.0103136),(0.,0.0508994,0.0110539),(0.,0.0511404,0.0103136),(0.,0.0510862,0.0104078),(0.,0.0508994,0.0110539),(0.,0.0510862,0.0104078),(0.,0.0510102,0.0104925),(0.,0.0508994,0.0110539),(0.,0.0510102,0.0104925),(0.,0.0509491,0.0105441),(0.,0.0508994,0.0110539),(0.,0.0509491,0.0105441),(0.,0.0508846,0.0105888),(0.,0.0508994,0.0110539),(0.,0.0508846,0.0105888),(0.,0.0507459,0.0106576),(0.,0.0508994,0.0110539),(0.,0.0507459,0.0106576),(0.,0.0505941,0.0106989),(0.,0.0508994,0.0110539),(0.,0.0505941,0.0106989),(0.,0.0505133,0.0107092),(0.,0.0508994,0.0110539),(0.,0.0505133,0.0107092),(0.,0.0504292,0.0107126),(0.,0.0508994,0.0110539),(0.,0.0504292,0.0107126),(0.,0.0503425,0.0107097),(0.,0.0508994,0.0110539),(0.,0.0503425,0.0107097),(0.,0.0502591,0.0107009),(0.,0.0508994,0.0110539),(0.,0.0502591,0.0107009),(0.,0.0501790,0.0106863),(0.,0.0508994,0.0110539),(0.,0.0501790,0.0106863),(0.,0.0501022,0.0106658),(0.,0.0508994,0.0110539),(0.,0.0501022,0.0106658),(0.,0.0499585,0.0106073),(0.,0.0479781,0.0096892),(0.,0.0508994,0.0110539),(0.,0.0499585,0.0106073),(0.,0.0479781,0.0096892),(0.,0.0499585,0.0106073),(0.,0.0498281,0.0105253),(0.,0.0479781,0.0096892),(0.,0.0498281,0.0105253),(0.,0.0478945,0.0091019),(0.,0.0479781,0.0109254),(0.,0.0479781,0.0096892),(0.,0.0478945,0.0091019),(0.,0.0479781,0.0109254),(0.,0.0478945,0.0091019),(0.,0.0477696,0.0090553),(0.,0.0479781,0.0109254),(0.,0.0477696,0.0090553),(0.,0.0477347,0.0090574),(0.,0.0479781,0.0109254),(0.,0.0477347,0.0090574),(0.,0.0476561,0.0090839),(0.,0.0479781,0.0109254),(0.,0.0476561,0.0090839),(0.,0.0476003,0.0091357),(0.,0.0479781,0.0109254),(0.,0.0476003,0.0091357),(0.,0.0475654,0.0092042),(0.,0.0479781,0.0109254),(0.,0.0475654,0.0092042),(0.,0.0475537,0.0092701),(0.,0.0479781,0.0109254),(0.,0.0475537,0.0092701),(0.,0.0475537,0.0109254),(0.,0.0479781,0.0109254),(0.,0.0475537,0.0109254),(0.,0.0475688,0.0110087),(0.,0.0479781,0.0109254),(0.,0.0475688,0.0110087),(0.,0.0476141,0.0110767),(0.,0.0479781,0.0109254),(0.,0.0476141,0.0110767),(0.,0.0476820,0.0111212),(0.,0.0479781,0.0109254),(0.,0.0476820,0.0111212),(0.,0.0477654,0.0111360),(0.,0.0479781,0.0109254),(0.,0.0477654,0.0111360),(0.,0.0478495,0.0111212),(0.,0.0479781,0.0109254),(0.,0.0478495,0.0111212),(0.,0.0479178,0.0110767),(0.,0.0479781,0.0109254),(0.,0.0479178,0.0110767),(0.,0.0479630,0.0110108),(0.,0.0475842,0.0143036),(0.,0.0474775,0.0143766),(0.,0.0474045,0.0144832),(0.,0.0475842,0.0143036),(0.,0.0474045,0.0144832),(0.,0.0473802,0.0146084),(0.,0.0475842,0.0143036),(0.,0.0473802,0.0146084),(0.,0.0474045,0.0147332),(0.,0.0475842,0.0143036),(0.,0.0474045,0.0147332),(0.,0.0474775,0.0148391),(0.,0.0475842,0.0143036),(0.,0.0474775,0.0148391),(0.,0.0475842,0.0149121),(0.,0.0475842,0.0143036),(0.,0.0475842,0.0149121),(0.,0.0477093,0.0149364),(0.,0.0475842,0.0143036),(0.,0.0477093,0.0149364),(0.,0.0478344,0.0149121),(0.,0.0475842,0.0143036),(0.,0.0478344,0.0149121),(0.,0.0479411,0.0148391),(0.,0.0475842,0.0143036),(0.,0.0479411,0.0148391),(0.,0.0480141,0.0147332),(0.,0.0475842,0.0143036),(0.,0.0480141,0.0147332),(0.,0.0480384,0.0146084),(0.,0.0475842,0.0143036),(0.,0.0480384,0.0146084),(0.,0.0480141,0.0144832),(0.,0.0475842,0.0143036),(0.,0.0480141,0.0144832),(0.,0.0479411,0.0143766),(0.,0.0475842,0.0143036),(0.,0.0479411,0.0143766),(0.,0.0478344,0.0143036),(0.,0.0475842,0.0143036),(0.,0.0478344,0.0143036),(0.,0.0477093,0.0142792)));
#1706=COMPLEX_TRIANGULATED_SURFACE_SET('surface set',#1705,1074,(),(),(),((1,2,3),(4,5,6),(7,8,9),(10,11,12),(13,14,15),(16,17,18),(19,20,21),(22,23,24),(25,26,27),(28,29,30),(31,32,33),(34,35,36),(37,38,39),(40,41,42),(43,44,45),(46,47,48),(49,50,51),(52,53,54),(55,56,57),(58,59,60),(61,62,63),(64,65,66),(67,68,69),(70,71,72),(73,74,75),(76,77,78),(79,80,81),(82,83,84),(85,86,87),(88,89,90),(91,92,93),(94,95,96),(97,98,99),(100,101,102),(103,104,105),(106,107,108),(109,110,111),(112,113,114),(115,116,117),(118,119,120),(121,122,123),(124,125,126),(127,128,129),(130,131,132),(133,134,135),(136,137,138),(139,140,141),(142,143,144),(145,146,147),(148,149,150),(151,152,153),(154,155,156),(157,158,159),(160,161,162),(163,164,165),(166,167,168),(169,170,171),(172,173,174),(175,176,177),(178,179,180),(181,182,183),(184,185,186),(187,188,189),(190,191,192),(193,194,195),(196,197,198),(199,200,201),(202,203,204),(205,206,207),(208,209,210),(211,212,213),(214,215,216),(217,218,219),(220,221,222),(223,224,225),(226,227,228),(229,230,231),(232,233,234),(235,236,237),(238,239,240),(241,242,243),(244,245,246),(247,248,249),(250,251,252),(253,254,255),(256,257,258),(259,260,261),(262,263,264),(265,266,267),(268,269,270),(271,272,273),(274,275,276),(277,278,279),(280,281,282),(283,284,285),(286,287,288),(289,290,291),(292,293,294),(295,296,297),(298,299,300),(301,302,303),(304,305,306),(307,308,309),(310,311,312),(313,314,315),(316,317,318),(319,320,321),(322,323,324),(325,326,327),(328,329,330),(331,332,333),(334,335,336),(337,338,339),(340,341,342),(343,344,345),(346,347,348),(349,350,351),(352,353,354),(355,356,357),(358,359,360),(361,362,363),(364,365,366),(367,368,369),(370,371,372),(373,374,375),(376,377,378),(379,380,381),(382,383,384),(385,386,387),(388,389,390),(391,392,393),(394,395,396),(397,398,399),(400,401,402),(403,404,405),(406,407,408),(409,410,411),(412,413,414),(415,416,417),(418,419,420),(421,422,423),(424,425,426),(427,428,429),(430,431,432),(433,434,435),(436,437,438),(439,440,441),(442,443,444),(445,446,447),(448,449,450),(451,452,453),(454,455,456),(457,458,459),(460,461,462),(463,464,465),(466,467,468),(469,470,471),(472,473,474),(475,476,477),(478,479,480),(481,482,483),(484,485,486),(487,488,489),(490,491,492),(493,494,495),(496,497,498),(499,500,501),(502,503,504),(505,506,507),(508,509,510),(511,512,513),(514,515,516),(517,518,519),(520,521,522),(523,524,525),(526,527,528),(529,530,531),(532,533,534),(535,536,537),(538,539,540),(541,542,543),(544,545,546),(547,548,549),(550,551,552),(553,554,555),(556,557,558),(559,560,561),(562,563,564),(565,566,567),(568,569,570),(571,572,573),(574,575,576),(577,578,579),(580,581,582),(583,584,585),(586,587,588),(589,590,591),(592,593,594),(595,596,597),(598,599,600),(601,602,603),(604,605,606),(607,608,609),(610,611,612),(613,614,615),(616,617,618),(619,620,621),(622,623,624),(625,626,627),(628,629,630),(631,632,633),(634,635,636),(637,638,639),(640,641,642),(643,644,645),(646,647,648),(649,650,651),(652,653,654),(655,656,657),(658,659,660),(661,662,663),(664,665,666),(667,668,669),(670,671,672),(673,674,675),(676,677,678),(679,680,681),(682,683,684),(685,686,687),(688,689,690),(691,692,693),(694,695,696),(697,698,699),(700,701,702),(703,704,705),(706,707,708),(709,710,711),(712,713,714),(715,716,717),(718,719,720),(721,722,723),(724,725,726),(727,728,729),(730,731,732),(733,734,735),(736,737,738),(739,740,741),(742,743,744),(745,746,747),(748,749,750),(751,752,753),(754,755,756),(757,758,759),(760,761,762),(763,764,765),(766,767,768),(769,770,771),(772,773,774),(775,776,777),(778,779,780),(781,782,783),(784,785,786),(787,788,789),(790,791,792),(793,794,795),(796,797,798),(799,800,801),(802,803,804),(805,806,807),(808,809,810),(811,812,813),(814,815,816),(817,818,819),(820,821,822),(823,824,825),(826,827,828),(829,830,831),(832,833,834),(835,836,837),(838,839,840),(841,842,843),(844,845,846),(847,848,849),(850,851,852),(853,854,855),(856,857,858),(859,860,861),(862,863,864),(865,866,867),(868,869,870),(871,872,873),(874,875,876),(877,878,879),(880,881,882),(883,884,885),(886,887,888),(889,890,891),(892,893,894),(895,896,897),(898,899,900),(901,902,903),(904,905,906),(907,908,909),(910,911,912),(913,914,915),(916,917,918),(919,920,921),(922,923,924),(925,926,927),(928,929,930),(931,932,933),(934,935,936),(937,938,939),(940,941,942),(943,944,945),(946,947,948),(949,950,951),(952,953,954),(955,956,957),(958,959,960),(961,962,963),(964,965,966),(967,968,969),(970,971,972),(973,974,975),(976,977,978),(979,980,981),(982,983,984),(985,986,987),(988,989,990),(991,992,993),(994,995,996),(997,998,999),(1000,1001,1002),(1003,1004,1005),(1006,1007,1008),(1009,1010,1011),(1012,1013,1014),(1015,1016,1017),(1018,1019,1020),(1021,1022,1023),(1024,1025,1026),(1027,1028,1029),(1030,1031,1032),(1033,1034,1035),(1036,1037,1038),(1039,1040,1041),(1042,1043,1044),(1045,1046,1047),(1048,1049,1050),(1051,1052,1053),(1054,1055,1056),(1057,1058,1059),(1060,1061,1062),(1063,1064,1065),(1066,1067,1068),(1069,1070,1071),(1072,1073,1074)));
#1707=TESSELLATED_GEOMETRIC_SET('linear dimension',(#1706));
#1708=COORDINATES_LIST('coordinates',8,((0.,0.0330000,0.0020000),(0.,0.0495000,0.0020000),(0.,0.0350000,0.0272400),(0.,0.0495000,0.0272400),(0.,0.0495000,0.0020000),(0.,0.0495000,0.0080553),(0.,0.0495000,0.0211847),(0.,0.0495000,0.0272400)));
#1709=TESSELLATED_CURVE_SET('curve set',#1708,((1,2),(3,4),(5,6),(7,8)));
#1710=TESSELLATED_GEOMETRIC_SET('linear dimension',(#1709));
#1711=TESSELLATED_ANNOTATION_OCCURRENCE('linear dimension',(#1704),#1707);
#1712=TESSELLATED_ANNOTATION_OCCURRENCE('linear dimension',(#1704),#1710);
#1713=DRAUGHTING_CALLOUT('linear dimension',(#1711,#1712));
#1714=DRAUGHTING_MODEL_ITEM_ASSOCIATION('','',#1670,#1700,#1713);
#1715=DRAUGHTING_MODEL_ITEM_ASSOCIATION('','',#1672,#1700,#1713);
#1716=DRAUGHTING_MODEL_ITEM_ASSOCIATION('','',#1674,#1700,#1713);
ENDSEC;
END-ISO-10303-21;
