ISO-10303-21;
HEADER;
/* Generated by software containing ST-Developer
 * from STEP Tools, Inc. (www.steptools.com) 
 */
/* OPTION: using custom renumber hook */

FILE_DESCRIPTION(
/* description */ ('STEP AP242 Edition 2',
'CAx-IF Rec.Pracs.---Representation and Presentation of Product Manufa
cturing Information (PMI)---4.0---2014-10-13',
'CAx-IF Rec.Pracs.---3D Tessellated Geometry---0.4---2014-09-14','2;1',
'CAx-IF Rec.Pracs.---User Defined Attributes---1.5---2016-08-15'),
/* implementation_level */ '2;1');

FILE_NAME(
/* name */ 'Pin',
/* time_stamp */ '2026-07-30T22:37:13Z',
/* author */ (''),
/* organization */ (''),
/* preprocessor_version */ 'ST-DEVELOPER v20',
/* originating_system */ 'ONSHAPE BY PTC INC, 1.218',
/* authorisation */ '  ');

FILE_SCHEMA (('AP242_MANAGED_MODEL_BASED_3D_ENGINEERING_MIM_LF { 1 0 10303 442 3 1 4 }'));
ENDSEC;

DATA;
#10=SHAPE_REPRESENTATION_RELATIONSHIP('','',#69,#11);
#11=ADVANCED_BREP_SHAPE_REPRESENTATION('',(#67),#115);
#12=SPHERICAL_SURFACE('',#78,0.003);
#13=PLANE('',#77);
#14=PLANE('',#79);
#15=ELLIPSE('',#73,0.00180277563773199,0.0015);
#16=ORIENTED_EDGE('',*,*,#24,.T.);
#17=ORIENTED_EDGE('',*,*,#25,.T.);
#18=ORIENTED_EDGE('',*,*,#26,.T.);
#19=ORIENTED_EDGE('',*,*,#27,.F.);
#20=ORIENTED_EDGE('',*,*,#24,.F.);
#21=ORIENTED_EDGE('',*,*,#27,.T.);
#22=ORIENTED_EDGE('',*,*,#26,.F.);
#23=ORIENTED_EDGE('',*,*,#25,.F.);
#24=EDGE_CURVE('',#28,#28,#32,.T.);
#25=EDGE_CURVE('',#29,#29,#15,.T.);
#26=EDGE_CURVE('',#30,#30,#33,.F.);
#27=EDGE_CURVE('',#31,#31,#34,.T.);
#28=VERTEX_POINT('',#103);
#29=VERTEX_POINT('',#105);
#30=VERTEX_POINT('',#108);
#31=VERTEX_POINT('',#110);
#32=CIRCLE('',#72,0.0015);
#33=CIRCLE('',#75,0.003);
#34=CIRCLE('',#76,0.003);
#35=EDGE_LOOP('',(#16));
#36=EDGE_LOOP('',(#17));
#37=EDGE_LOOP('',(#18));
#38=EDGE_LOOP('',(#19));
#39=EDGE_LOOP('',(#20));
#40=EDGE_LOOP('',(#21));
#41=EDGE_LOOP('',(#22));
#42=EDGE_LOOP('',(#23));
#43=FACE_BOUND('',#35,.T.);
#44=FACE_BOUND('',#36,.T.);
#45=FACE_BOUND('',#37,.T.);
#46=FACE_BOUND('',#38,.T.);
#47=FACE_BOUND('',#39,.T.);
#48=FACE_BOUND('',#40,.T.);
#49=FACE_BOUND('',#41,.T.);
#50=FACE_BOUND('',#42,.T.);
#51=CYLINDRICAL_SURFACE('',#71,0.0015);
#52=CYLINDRICAL_SURFACE('',#74,0.003);
#53=ADVANCED_FACE('',(#43,#44),#51,.T.);
#54=ADVANCED_FACE('',(#45,#46),#52,.T.);
#55=ADVANCED_FACE('',(#47,#48),#13,.T.);
#56=ADVANCED_FACE('',(#49),#12,.T.);
#57=ADVANCED_FACE('',(#50),#14,.F.);
#58=CLOSED_SHELL('',(#53,#54,#55,#56,#57));
#59=STYLED_ITEM('',(#60),#67);
#60=PRESENTATION_STYLE_ASSIGNMENT((#61));
#61=SURFACE_STYLE_USAGE(.BOTH.,#62);
#62=SURFACE_SIDE_STYLE('',(#63));
#63=SURFACE_STYLE_FILL_AREA(#64);
#64=FILL_AREA_STYLE('',(#65));
#65=FILL_AREA_STYLE_COLOUR('',#66);
#66=COLOUR_RGB('',0.615686274509804,0.811764705882353,0.929411764705882);
#67=MANIFOLD_SOLID_BREP('Part 1',#58);
#68=SHAPE_DEFINITION_REPRESENTATION(#120,#69);
#69=SHAPE_REPRESENTATION('Part 1',(#70),#115);
#70=AXIS2_PLACEMENT_3D('',#100,#80,#81);
#71=AXIS2_PLACEMENT_3D('',#101,#82,#83);
#72=AXIS2_PLACEMENT_3D('',#102,#84,#85);
#73=AXIS2_PLACEMENT_3D('',#104,#86,#87);
#74=AXIS2_PLACEMENT_3D('',#106,#88,#89);
#75=AXIS2_PLACEMENT_3D('',#107,#90,#91);
#76=AXIS2_PLACEMENT_3D('',#109,#92,#93);
#77=AXIS2_PLACEMENT_3D('',#111,#94,#95);
#78=AXIS2_PLACEMENT_3D('',#112,#96,#97);
#79=AXIS2_PLACEMENT_3D('',#113,#98,#99);
#80=DIRECTION('',(0.,0.,1.));
#81=DIRECTION('',(1.,0.,0.));
#82=DIRECTION('',(0.,0.,-1.));
#83=DIRECTION('',(-1.,0.,0.));
#84=DIRECTION('',(0.,0.,1.));
#85=DIRECTION('',(1.,0.,0.));
#86=DIRECTION('',(0.554700196225229,0.,-0.832050294337844));
#87=DIRECTION('',(-0.832050294337844,0.,-0.554700196225229));
#88=DIRECTION('',(0.,0.,-1.));
#89=DIRECTION('',(-1.,0.,0.));
#90=DIRECTION('',(0.,0.,-1.));
#91=DIRECTION('',(-1.,0.,0.));
#92=DIRECTION('',(0.,0.,1.));
#93=DIRECTION('',(1.,0.,0.));
#94=DIRECTION('',(0.,0.,1.));
#95=DIRECTION('',(1.,0.,0.));
#96=DIRECTION('',(0.,0.,1.));
#97=DIRECTION('',(1.,0.,0.));
#98=DIRECTION('',(0.554700196225229,0.,-0.832050294337844));
#99=DIRECTION('',(-0.832050294337844,0.,-0.554700196225229));
#100=CARTESIAN_POINT('',(0.,0.,0.));
#101=CARTESIAN_POINT('',(0.,9.18485099360515E-20,0.021));
#102=CARTESIAN_POINT('',(0.,9.18485099360515E-20,0.005));
#103=CARTESIAN_POINT('',(0.0015,9.18485099360515E-20,0.005));
#104=CARTESIAN_POINT('',(0.,9.18485099360515E-20,0.02));
#105=CARTESIAN_POINT('',(-0.0015,9.18485099360515E-20,0.019));
#106=CARTESIAN_POINT('',(0.,1.83697019872103E-19,0.005));
#107=CARTESIAN_POINT('',(0.,1.83697019872103E-19,0.003));
#108=CARTESIAN_POINT('',(-0.003,1.83697019872103E-19,0.003));
#109=CARTESIAN_POINT('',(0.,1.83697019872103E-19,0.005));
#110=CARTESIAN_POINT('',(0.003,1.83697019872103E-19,0.005));
#111=CARTESIAN_POINT('',(0.,0.,0.005));
#112=CARTESIAN_POINT('',(0.,1.83697019872103E-19,0.003));
#113=CARTESIAN_POINT('',(1.0842021724855E-19,-0.025,0.02));
#114=MECHANICAL_DESIGN_GEOMETRIC_PRESENTATION_REPRESENTATION('',(#59),#115);
#115=(
GEOMETRIC_REPRESENTATION_CONTEXT(3)
GLOBAL_UNCERTAINTY_ASSIGNED_CONTEXT((#116))
GLOBAL_UNIT_ASSIGNED_CONTEXT((#119,#118,#117))
REPRESENTATION_CONTEXT('Part 1','TOP_LEVEL_ASSEMBLY_PART')
);
#116=UNCERTAINTY_MEASURE_WITH_UNIT(LENGTH_MEASURE(1.E-8),#119,
'DISTANCE_ACCURACY_VALUE','Maximum Tolerance applied to model');
#117=(
NAMED_UNIT(*)
SI_UNIT($,.STERADIAN.)
SOLID_ANGLE_UNIT()
);
#118=(
NAMED_UNIT(*)
PLANE_ANGLE_UNIT()
SI_UNIT($,.RADIAN.)
);
#119=(
LENGTH_UNIT()
NAMED_UNIT(*)
SI_UNIT($,.METRE.)
);
#120=PRODUCT_DEFINITION_SHAPE('','',#121);
#121=PRODUCT_DEFINITION('','',#123,#122);
#122=PRODUCT_DEFINITION_CONTEXT('',#129,'design');
#123=PRODUCT_DEFINITION_FORMATION_WITH_SPECIFIED_SOURCE('','',#125,
 .NOT_KNOWN.);
#124=PRODUCT_RELATED_PRODUCT_CATEGORY('','',(#125));
#125=PRODUCT('Part 1','Part 1','Part 1',(#127));
#126=PRODUCT_CATEGORY('','');
#127=PRODUCT_CONTEXT('',#129,'mechanical');
#128=APPLICATION_PROTOCOL_DEFINITION('international standard',
'ap242_managed_model_based_3d_engineering',2020,#129);
#129=APPLICATION_CONTEXT('managed model based 3d engineering');
ENDSEC;
END-ISO-10303-21;
