ISO-10303-21;
HEADER;
/* Generated by software containing ST-Developer
 * from STEP Tools, Inc. (www.steptools.com) 
 */
/* OPTION: using custom renumber hook */

FILE_DESCRIPTION(
/* description */ ('STEP AP242 Edition 2',
'CAx-IF Rec.Pracs.---Representation and Presentation of Product Manufa
cturing Information (PMI)---4.0---2014-10-13',
'CAx-IF Rec.Pracs.---3D Tessellated Geometry---0.4---2014-09-14','2;1',
'CAx-IF Rec.Pracs.---User Defined Attributes---1.5---2016-08-15'),
/* implementation_level */ '2;1');

FILE_NAME(
/* name */ 'Spiral Gear',
/* time_stamp */ '2026-07-30T22:37:01Z',
/* author */ (''),
/* organization */ (''),
/* preprocessor_version */ 'ST-DEVELOPER v20',
/* originating_system */ 'ONSHAPE BY PTC INC, 1.218',
/* authorisation */ '  ');

FILE_SCHEMA (('AP242_MANAGED_MODEL_BASED_3D_ENGINEERING_MIM_LF { 1 0 10303 442 3 1 4 }'));
ENDSEC;

DATA;
#10=SHAPE_REPRESENTATION_RELATIONSHIP('','',#223,#11);
#11=ADVANCED_BREP_SHAPE_REPRESENTATION('',(#221),#378);
#12=CYLINDRICAL_SURFACE('',#233,0.00275);
#13=CYLINDRICAL_SURFACE('',#240,0.0105526315789474);
#14=CYLINDRICAL_SURFACE('',#242,0.011547619047619);
#15=CYLINDRICAL_SURFACE('',#245,0.00872788980251669);
#16=CYLINDRICAL_SURFACE('',#247,0.00955882352941176);
#17=LINE('',#326,#32);
#18=LINE('',#332,#33);
#19=LINE('',#335,#34);
#20=LINE('',#337,#35);
#21=LINE('',#339,#36);
#22=LINE('',#341,#37);
#23=LINE('',#344,#38);
#24=LINE('',#346,#39);
#25=LINE('',#348,#40);
#26=LINE('',#357,#41);
#27=LINE('',#361,#42);
#28=LINE('',#363,#43);
#29=LINE('',#367,#44);
#30=LINE('',#369,#45);
#31=LINE('',#371,#46);
#32=VECTOR('',#260,1.);
#33=VECTOR('',#267,1.);
#34=VECTOR('',#268,1.);
#35=VECTOR('',#269,1.);
#36=VECTOR('',#270,1.);
#37=VECTOR('',#273,1.);
#38=VECTOR('',#274,1.);
#39=VECTOR('',#275,1.);
#40=VECTOR('',#276,1.);
#41=VECTOR('',#293,1.);
#42=VECTOR('',#296,1.);
#43=VECTOR('',#299,1.);
#44=VECTOR('',#304,1.);
#45=VECTOR('',#305,1.);
#46=VECTOR('',#308,1.);
#47=ORIENTED_EDGE('',*,*,#103,.F.);
#48=ORIENTED_EDGE('',*,*,#104,.F.);
#49=ORIENTED_EDGE('',*,*,#105,.F.);
#50=ORIENTED_EDGE('',*,*,#106,.T.);
#51=ORIENTED_EDGE('',*,*,#107,.F.);
#52=ORIENTED_EDGE('',*,*,#108,.F.);
#53=ORIENTED_EDGE('',*,*,#109,.F.);
#54=ORIENTED_EDGE('',*,*,#110,.T.);
#55=ORIENTED_EDGE('',*,*,#111,.T.);
#56=ORIENTED_EDGE('',*,*,#112,.F.);
#57=ORIENTED_EDGE('',*,*,#113,.F.);
#58=ORIENTED_EDGE('',*,*,#114,.F.);
#59=ORIENTED_EDGE('',*,*,#115,.T.);
#60=ORIENTED_EDGE('',*,*,#116,.T.);
#61=ORIENTED_EDGE('',*,*,#108,.T.);
#62=ORIENTED_EDGE('',*,*,#115,.F.);
#63=ORIENTED_EDGE('',*,*,#117,.F.);
#64=ORIENTED_EDGE('',*,*,#109,.T.);
#65=ORIENTED_EDGE('',*,*,#118,.F.);
#66=ORIENTED_EDGE('',*,*,#111,.F.);
#67=ORIENTED_EDGE('',*,*,#119,.F.);
#68=ORIENTED_EDGE('',*,*,#113,.T.);
#69=ORIENTED_EDGE('',*,*,#120,.F.);
#70=ORIENTED_EDGE('',*,*,#116,.F.);
#71=ORIENTED_EDGE('',*,*,#120,.T.);
#72=ORIENTED_EDGE('',*,*,#118,.T.);
#73=ORIENTED_EDGE('',*,*,#112,.T.);
#74=ORIENTED_EDGE('',*,*,#121,.T.);
#75=ORIENTED_EDGE('',*,*,#122,.F.);
#76=ORIENTED_EDGE('',*,*,#123,.F.);
#77=ORIENTED_EDGE('',*,*,#103,.T.);
#78=ORIENTED_EDGE('',*,*,#124,.T.);
#79=ORIENTED_EDGE('',*,*,#125,.F.);
#80=ORIENTED_EDGE('',*,*,#121,.F.);
#81=ORIENTED_EDGE('',*,*,#107,.T.);
#82=ORIENTED_EDGE('',*,*,#126,.T.);
#83=ORIENTED_EDGE('',*,*,#127,.T.);
#84=ORIENTED_EDGE('',*,*,#124,.F.);
#85=ORIENTED_EDGE('',*,*,#106,.F.);
#86=ORIENTED_EDGE('',*,*,#128,.T.);
#87=ORIENTED_EDGE('',*,*,#129,.F.);
#88=ORIENTED_EDGE('',*,*,#126,.F.);
#89=ORIENTED_EDGE('',*,*,#105,.T.);
#90=ORIENTED_EDGE('',*,*,#123,.T.);
#91=ORIENTED_EDGE('',*,*,#130,.F.);
#92=ORIENTED_EDGE('',*,*,#128,.F.);
#93=ORIENTED_EDGE('',*,*,#104,.T.);
#94=ORIENTED_EDGE('',*,*,#122,.T.);
#95=ORIENTED_EDGE('',*,*,#125,.T.);
#96=ORIENTED_EDGE('',*,*,#127,.F.);
#97=ORIENTED_EDGE('',*,*,#129,.T.);
#98=ORIENTED_EDGE('',*,*,#130,.T.);
#99=ORIENTED_EDGE('',*,*,#117,.T.);
#100=ORIENTED_EDGE('',*,*,#114,.T.);
#101=ORIENTED_EDGE('',*,*,#119,.T.);
#102=ORIENTED_EDGE('',*,*,#110,.F.);
#103=EDGE_CURVE('',#131,#132,#150,.T.);
#104=EDGE_CURVE('',#133,#131,#151,.T.);
#105=EDGE_CURVE('',#134,#133,#152,.T.);
#106=EDGE_CURVE('',#134,#135,#17,.T.);
#107=EDGE_CURVE('',#132,#135,#153,.T.);
#108=EDGE_CURVE('',#136,#136,#154,.T.);
#109=EDGE_CURVE('',#137,#138,#18,.T.);
#110=EDGE_CURVE('',#137,#139,#19,.T.);
#111=EDGE_CURVE('',#139,#140,#20,.F.);
#112=EDGE_CURVE('',#138,#140,#21,.T.);
#113=EDGE_CURVE('',#141,#142,#22,.T.);
#114=EDGE_CURVE('',#143,#141,#23,.T.);
#115=EDGE_CURVE('',#143,#144,#24,.F.);
#116=EDGE_CURVE('',#144,#142,#25,.F.);
#117=EDGE_CURVE('',#137,#143,#155,.F.);
#118=EDGE_CURVE('',#140,#138,#156,.T.);
#119=EDGE_CURVE('',#141,#139,#157,.F.);
#120=EDGE_CURVE('',#144,#142,#158,.T.);
#121=EDGE_CURVE('',#132,#145,#26,.T.);
#122=EDGE_CURVE('',#146,#145,#159,.T.);
#123=EDGE_CURVE('',#131,#146,#27,.T.);
#124=EDGE_CURVE('',#135,#147,#28,.T.);
#125=EDGE_CURVE('',#145,#147,#160,.T.);
#126=EDGE_CURVE('',#134,#148,#29,.T.);
#127=EDGE_CURVE('',#148,#147,#30,.T.);
#128=EDGE_CURVE('',#133,#149,#31,.T.);
#129=EDGE_CURVE('',#148,#149,#161,.T.);
#130=EDGE_CURVE('',#149,#146,#162,.T.);
#131=VERTEX_POINT('',#320);
#132=VERTEX_POINT('',#321);
#133=VERTEX_POINT('',#323);
#134=VERTEX_POINT('',#325);
#135=VERTEX_POINT('',#327);
#136=VERTEX_POINT('',#330);
#137=VERTEX_POINT('',#333);
#138=VERTEX_POINT('',#334);
#139=VERTEX_POINT('',#336);
#140=VERTEX_POINT('',#338);
#141=VERTEX_POINT('',#342);
#142=VERTEX_POINT('',#343);
#143=VERTEX_POINT('',#345);
#144=VERTEX_POINT('',#347);
#145=VERTEX_POINT('',#358);
#146=VERTEX_POINT('',#360);
#147=VERTEX_POINT('',#364);
#148=VERTEX_POINT('',#368);
#149=VERTEX_POINT('',#372);
#150=CIRCLE('',#226,0.0105526315789474);
#151=CIRCLE('',#227,0.00955882352941176);
#152=CIRCLE('',#228,0.00872788980251669);
#153=CIRCLE('',#229,0.011547619047619);
#154=CIRCLE('',#230,0.00275);
#155=CIRCLE('',#234,0.00275);
#156=CIRCLE('',#235,0.00275);
#157=CIRCLE('',#236,0.00275);
#158=CIRCLE('',#237,0.00275);
#159=CIRCLE('',#241,0.0105526315789474);
#160=CIRCLE('',#243,0.011547619047619);
#161=CIRCLE('',#246,0.00872788980251669);
#162=CIRCLE('',#248,0.00955882352941176);
#163=EDGE_LOOP('',(#47,#48,#49,#50,#51));
#164=EDGE_LOOP('',(#52));
#165=EDGE_LOOP('',(#53,#54,#55,#56));
#166=EDGE_LOOP('',(#57,#58,#59,#60));
#167=EDGE_LOOP('',(#61));
#168=EDGE_LOOP('',(#62,#63,#64,#65,#66,#67,#68,#69));
#169=EDGE_LOOP('',(#70,#71));
#170=EDGE_LOOP('',(#72,#73));
#171=EDGE_LOOP('',(#74,#75,#76,#77));
#172=EDGE_LOOP('',(#78,#79,#80,#81));
#173=EDGE_LOOP('',(#82,#83,#84,#85));
#174=EDGE_LOOP('',(#86,#87,#88,#89));
#175=EDGE_LOOP('',(#90,#91,#92,#93));
#176=EDGE_LOOP('',(#94,#95,#96,#97,#98));
#177=EDGE_LOOP('',(#99,#100,#101,#102));
#178=FACE_BOUND('',#163,.T.);
#179=FACE_BOUND('',#164,.T.);
#180=FACE_BOUND('',#165,.T.);
#181=FACE_BOUND('',#166,.T.);
#182=FACE_BOUND('',#167,.T.);
#183=FACE_BOUND('',#168,.T.);
#184=FACE_BOUND('',#169,.T.);
#185=FACE_BOUND('',#170,.T.);
#186=FACE_BOUND('',#171,.T.);
#187=FACE_BOUND('',#172,.T.);
#188=FACE_BOUND('',#173,.T.);
#189=FACE_BOUND('',#174,.T.);
#190=FACE_BOUND('',#175,.T.);
#191=FACE_BOUND('',#176,.T.);
#192=FACE_BOUND('',#177,.T.);
#193=PLANE('',#225);
#194=PLANE('',#231);
#195=PLANE('',#232);
#196=PLANE('',#238);
#197=PLANE('',#239);
#198=PLANE('',#244);
#199=PLANE('',#249);
#200=ADVANCED_FACE('',(#178,#179),#193,.T.);
#201=ADVANCED_FACE('',(#180),#194,.T.);
#202=ADVANCED_FACE('',(#181),#195,.F.);
#203=ADVANCED_FACE('',(#182,#183),#12,.F.);
#204=ADVANCED_FACE('',(#184),#196,.T.);
#205=ADVANCED_FACE('',(#185),#197,.T.);
#206=ADVANCED_FACE('',(#186),#13,.T.);
#207=ADVANCED_FACE('',(#187),#14,.T.);
#208=ADVANCED_FACE('',(#188),#198,.F.);
#209=ADVANCED_FACE('',(#189),#15,.T.);
#210=ADVANCED_FACE('',(#190),#16,.T.);
#211=ADVANCED_FACE('',(#191,#192),#199,.F.);
#212=CLOSED_SHELL('',(#200,#201,#202,#203,#204,#205,#206,#207,#208,#209,
#210,#211));
#213=STYLED_ITEM('',(#214),#221);
#214=PRESENTATION_STYLE_ASSIGNMENT((#215));
#215=SURFACE_STYLE_USAGE(.BOTH.,#216);
#216=SURFACE_SIDE_STYLE('',(#217));
#217=SURFACE_STYLE_FILL_AREA(#218);
#218=FILL_AREA_STYLE('',(#219));
#219=FILL_AREA_STYLE_COLOUR('',#220);
#220=COLOUR_RGB('',0.615686274509804,0.811764705882353,0.929411764705882);
#221=MANIFOLD_SOLID_BREP('Spur gear (7 teeth)',#212);
#222=SHAPE_DEFINITION_REPRESENTATION(#383,#223);
#223=SHAPE_REPRESENTATION('Spur gear (7 teeth)',(#224),#378);
#224=AXIS2_PLACEMENT_3D('',#317,#250,#251);
#225=AXIS2_PLACEMENT_3D('',#318,#252,#253);
#226=AXIS2_PLACEMENT_3D('',#319,#254,#255);
#227=AXIS2_PLACEMENT_3D('',#322,#256,#257);
#228=AXIS2_PLACEMENT_3D('',#324,#258,#259);
#229=AXIS2_PLACEMENT_3D('',#328,#261,#262);
#230=AXIS2_PLACEMENT_3D('',#329,#263,#264);
#231=AXIS2_PLACEMENT_3D('',#331,#265,#266);
#232=AXIS2_PLACEMENT_3D('',#340,#271,#272);
#233=AXIS2_PLACEMENT_3D('',#349,#277,#278);
#234=AXIS2_PLACEMENT_3D('',#350,#279,#280);
#235=AXIS2_PLACEMENT_3D('',#351,#281,#282);
#236=AXIS2_PLACEMENT_3D('',#352,#283,#284);
#237=AXIS2_PLACEMENT_3D('',#353,#285,#286);
#238=AXIS2_PLACEMENT_3D('',#354,#287,#288);
#239=AXIS2_PLACEMENT_3D('',#355,#289,#290);
#240=AXIS2_PLACEMENT_3D('',#356,#291,#292);
#241=AXIS2_PLACEMENT_3D('',#359,#294,#295);
#242=AXIS2_PLACEMENT_3D('',#362,#297,#298);
#243=AXIS2_PLACEMENT_3D('',#365,#300,#301);
#244=AXIS2_PLACEMENT_3D('',#366,#302,#303);
#245=AXIS2_PLACEMENT_3D('',#370,#306,#307);
#246=AXIS2_PLACEMENT_3D('',#373,#309,#310);
#247=AXIS2_PLACEMENT_3D('',#374,#311,#312);
#248=AXIS2_PLACEMENT_3D('',#375,#313,#314);
#249=AXIS2_PLACEMENT_3D('',#376,#315,#316);
#250=DIRECTION('',(0.,0.,1.));
#251=DIRECTION('',(1.,0.,0.));
#252=DIRECTION('',(0.,-1.,0.));
#253=DIRECTION('',(1.,0.,0.));
#254=DIRECTION('',(0.,1.,0.));
#255=DIRECTION('',(0.,0.,1.));
#256=DIRECTION('',(0.,1.,0.));
#257=DIRECTION('',(0.,0.,1.));
#258=DIRECTION('',(0.,1.,0.));
#259=DIRECTION('',(0.,0.,1.));
#260=DIRECTION('',(-1.22464679914735E-16,0.,-1.));
#261=DIRECTION('',(0.,1.,0.));
#262=DIRECTION('',(0.,0.,1.));
#263=DIRECTION('',(0.,-1.,0.));
#264=DIRECTION('',(0.,0.,-1.));
#265=DIRECTION('',(0.,0.,-1.));
#266=DIRECTION('',(-1.,0.,0.));
#267=DIRECTION('',(0.,-1.,0.));
#268=DIRECTION('',(1.,0.,0.));
#269=DIRECTION('',(0.,1.,0.));
#270=DIRECTION('',(1.,0.,0.));
#271=DIRECTION('',(0.,0.,-1.));
#272=DIRECTION('',(-1.,0.,0.));
#273=DIRECTION('',(0.,-1.,0.));
#274=DIRECTION('',(1.,0.,0.));
#275=DIRECTION('',(0.,1.,0.));
#276=DIRECTION('',(-1.,0.,0.));
#277=DIRECTION('',(0.,-1.,0.));
#278=DIRECTION('',(0.,0.,-1.));
#279=DIRECTION('',(0.,1.,0.));
#280=DIRECTION('',(0.,0.,1.));
#281=DIRECTION('',(0.,-1.,0.));
#282=DIRECTION('',(0.,0.,-1.));
#283=DIRECTION('',(0.,1.,0.));
#284=DIRECTION('',(0.,0.,1.));
#285=DIRECTION('',(0.,-1.,0.));
#286=DIRECTION('',(0.,0.,-1.));
#287=DIRECTION('',(0.,-1.,0.));
#288=DIRECTION('',(1.,0.,0.));
#289=DIRECTION('',(0.,-1.,0.));
#290=DIRECTION('',(1.,0.,0.));
#291=DIRECTION('',(0.,1.,0.));
#292=DIRECTION('',(0.,0.,1.));
#293=DIRECTION('',(0.,1.,0.));
#294=DIRECTION('',(0.,1.,0.));
#295=DIRECTION('',(0.,0.,1.));
#296=DIRECTION('',(0.,1.,0.));
#297=DIRECTION('',(0.,1.,0.));
#298=DIRECTION('',(0.,0.,1.));
#299=DIRECTION('',(0.,1.,0.));
#300=DIRECTION('',(0.,1.,0.));
#301=DIRECTION('',(0.,0.,1.));
#302=DIRECTION('',(1.,0.,-1.22464679914735E-16));
#303=DIRECTION('',(-1.22464679914735E-16,0.,-1.));
#304=DIRECTION('',(0.,1.,0.));
#305=DIRECTION('',(-1.22464679914735E-16,0.,-1.));
#306=DIRECTION('',(0.,1.,0.));
#307=DIRECTION('',(0.,0.,1.));
#308=DIRECTION('',(0.,1.,0.));
#309=DIRECTION('',(0.,1.,0.));
#310=DIRECTION('',(0.,0.,1.));
#311=DIRECTION('',(0.,1.,0.));
#312=DIRECTION('',(0.,0.,1.));
#313=DIRECTION('',(0.,1.,0.));
#314=DIRECTION('',(0.,0.,1.));
#315=DIRECTION('',(0.,-1.,0.));
#316=DIRECTION('',(1.,0.,0.));
#317=CARTESIAN_POINT('',(0.,0.,0.));
#318=CARTESIAN_POINT('',(0.,-0.007,0.));
#319=CARTESIAN_POINT('',(-4.33680868994202E-19,-0.007,-0.00105263157894736));
#320=CARTESIAN_POINT('',(1.95156391047391E-18,-0.007,0.0095));
#321=CARTESIAN_POINT('',(0.0105,-0.007,-4.98732999343332E-18));
#322=CARTESIAN_POINT('',(0.00105882352941177,-0.007,9.75781955236954E-19));
#323=CARTESIAN_POINT('',(-0.0085,-0.007,1.3010426069826E-18));
#324=CARTESIAN_POINT('',(-1.58847164625577E-18,-0.007,0.0019814288795904));
#325=CARTESIAN_POINT('',(2.91070320768008E-19,-0.007,-0.00674646092292629));
#326=CARTESIAN_POINT('',(-4.09260113182288E-34,-0.007,-0.00912323046146315));
#327=CARTESIAN_POINT('',(-2.91070320768009E-19,-0.007,-0.0115));
#328=CARTESIAN_POINT('',(-0.00104761904761905,-0.007,9.41105924017564E-19));
#329=CARTESIAN_POINT('',(-8.67361737988404E-19,-0.007,-1.0842021724855E-19));
#330=CARTESIAN_POINT('',(-8.67361737988404E-19,-0.007,-0.00275));
#331=CARTESIAN_POINT('',(0.,0.018,0.0015));
#332=CARTESIAN_POINT('',(-0.00230488611432322,-0.0045,0.0015));
#333=CARTESIAN_POINT('',(-0.00230488611432322,0.004,0.0015));
#334=CARTESIAN_POINT('',(-0.00230488611432322,-0.0045,0.0015));
#335=CARTESIAN_POINT('',(0.,0.004,0.0015));
#336=CARTESIAN_POINT('',(0.00230488611432322,0.004,0.0015));
#337=CARTESIAN_POINT('',(0.00230488611432322,0.018,0.0015));
#338=CARTESIAN_POINT('',(0.00230488611432322,-0.0045,0.0015));
#339=CARTESIAN_POINT('',(-0.000434969652343943,-0.0045,0.0015));
#340=CARTESIAN_POINT('',(0.,0.018,-0.0015));
#341=CARTESIAN_POINT('',(0.00230488611432322,-0.0045,-0.0015));
#342=CARTESIAN_POINT('',(0.00230488611432322,0.004,-0.0015));
#343=CARTESIAN_POINT('',(0.00230488611432322,-0.0045,-0.0015));
#344=CARTESIAN_POINT('',(0.,0.004,-0.0015));
#345=CARTESIAN_POINT('',(-0.00230488611432322,0.004,-0.0015));
#346=CARTESIAN_POINT('',(-0.00230488611432322,0.018,-0.0015));
#347=CARTESIAN_POINT('',(-0.00230488611432322,-0.0045,-0.0015));
#348=CARTESIAN_POINT('',(0.,-0.0045,-0.0015));
#349=CARTESIAN_POINT('',(-8.67361737988404E-19,-0.0045,-1.0842021724855E-19));
#350=CARTESIAN_POINT('',(-8.67361737988404E-19,0.004,-1.0842021724855E-19));
#351=CARTESIAN_POINT('',(-8.67361737988404E-19,-0.0045,-1.0842021724855E-19));
#352=CARTESIAN_POINT('',(-8.67361737988404E-19,0.004,-1.0842021724855E-19));
#353=CARTESIAN_POINT('',(-8.67361737988404E-19,-0.0045,-1.0842021724855E-19));
#354=CARTESIAN_POINT('',(-0.000434969652343943,-0.0045,3.46944695195361E-18));
#355=CARTESIAN_POINT('',(-0.000434969652343943,-0.0045,3.46944695195361E-18));
#356=CARTESIAN_POINT('',(-4.33680868994202E-19,-0.007,-0.00105263157894736));
#357=CARTESIAN_POINT('',(0.0105,-0.007,-4.98732999343332E-18));
#358=CARTESIAN_POINT('',(0.0105,0.004,-4.98732999343332E-18));
#359=CARTESIAN_POINT('',(-4.33680868994202E-19,0.004,-0.00105263157894736));
#360=CARTESIAN_POINT('',(1.95156391047391E-18,0.004,0.0095));
#361=CARTESIAN_POINT('',(1.95156391047391E-18,-0.007,0.0095));
#362=CARTESIAN_POINT('',(-0.00104761904761905,-0.007,9.41105924017564E-19));
#363=CARTESIAN_POINT('',(-2.91070320768009E-19,-0.007,-0.0115));
#364=CARTESIAN_POINT('',(-2.91070320768009E-19,0.004,-0.0115));
#365=CARTESIAN_POINT('',(-0.00104761904761905,0.004,9.41105924017564E-19));
#366=CARTESIAN_POINT('',(-4.09260113182288E-34,-0.007,-0.00912323046146315));
#367=CARTESIAN_POINT('',(2.91070320768008E-19,-0.007,-0.00674646092292629));
#368=CARTESIAN_POINT('',(2.91070320768008E-19,0.004,-0.00674646092292629));
#369=CARTESIAN_POINT('',(-4.09260113182288E-34,0.004,-0.00912323046146315));
#370=CARTESIAN_POINT('',(-1.58847164625577E-18,-0.007,0.0019814288795904));
#371=CARTESIAN_POINT('',(-0.0085,-0.007,1.3010426069826E-18));
#372=CARTESIAN_POINT('',(-0.0085,0.004,1.3010426069826E-18));
#373=CARTESIAN_POINT('',(-1.58847164625577E-18,0.004,0.0019814288795904));
#374=CARTESIAN_POINT('',(0.00105882352941177,-0.007,9.75781955236954E-19));
#375=CARTESIAN_POINT('',(0.00105882352941177,0.004,9.75781955236954E-19));
#376=CARTESIAN_POINT('',(0.,0.004,0.));
#377=MECHANICAL_DESIGN_GEOMETRIC_PRESENTATION_REPRESENTATION('',(#213),
#378);
#378=(
GEOMETRIC_REPRESENTATION_CONTEXT(3)
GLOBAL_UNCERTAINTY_ASSIGNED_CONTEXT((#379))
GLOBAL_UNIT_ASSIGNED_CONTEXT((#382,#381,#380))
REPRESENTATION_CONTEXT('Spur gear (7 teeth)','TOP_LEVEL_ASSEMBLY_PART')
);
#379=UNCERTAINTY_MEASURE_WITH_UNIT(LENGTH_MEASURE(1.E-8),#382,
'DISTANCE_ACCURACY_VALUE','Maximum Tolerance applied to model');
#380=(
NAMED_UNIT(*)
SI_UNIT($,.STERADIAN.)
SOLID_ANGLE_UNIT()
);
#381=(
NAMED_UNIT(*)
PLANE_ANGLE_UNIT()
SI_UNIT($,.RADIAN.)
);
#382=(
LENGTH_UNIT()
NAMED_UNIT(*)
SI_UNIT($,.METRE.)
);
#383=PRODUCT_DEFINITION_SHAPE('','',#384);
#384=PRODUCT_DEFINITION('','',#386,#385);
#385=PRODUCT_DEFINITION_CONTEXT('',#392,'design');
#386=PRODUCT_DEFINITION_FORMATION_WITH_SPECIFIED_SOURCE('','',#388,
 .NOT_KNOWN.);
#387=PRODUCT_RELATED_PRODUCT_CATEGORY('','',(#388));
#388=PRODUCT('Spur gear (7 teeth)','Spur gear (7 teeth)',
'Spur gear (7 teeth)',(#390));
#389=PRODUCT_CATEGORY('','');
#390=PRODUCT_CONTEXT('',#392,'mechanical');
#391=APPLICATION_PROTOCOL_DEFINITION('international standard',
'ap242_managed_model_based_3d_engineering',2020,#392);
#392=APPLICATION_CONTEXT('managed model based 3d engineering');
ENDSEC;
END-ISO-10303-21;
